%TF.GenerationSoftware,KiCad,Pcbnew,9.0.9-9.0.9~ubuntu24.04.1*%
%TF.CreationDate,2026-09-24T20:21:33+00:00*%
%TF.ProjectId,temperature-sensor,74656d70-6572-4617-9475-72652d73656e,rev?*%
%TF.SameCoordinates,Original*%
%TF.FileFunction,Legend,Top*%
%TF.FilePolarity,Positive*%
%FSLAX46Y46*%
G04 Gerber Fmt 4.6, Leading zero omitted, Abs format (unit mm)*
G04 Created by KiCad (PCBNEW 9.0.9-9.0.9~ubuntu24.04.1) date 2026-09-24 20:21:33*
%MOMM*%
%LPD*%
G01*
G04 APERTURE LIST*
G04 Aperture macros list*
%AMRoundRect*
0 Rectangle with rounded corners*
0 $1 Rounding radius*
0 $2 $3 $4 $5 $6 $7 $8 $9 X,Y pos of 4 corners*
0 Add a 4 corners polygon primitive as box body*
4,1,4,$2,$3,$4,$5,$6,$7,$8,$9,$2,$3,0*
0 Add four circle primitives for the rounded corners*
1,1,$1+$1,$2,$3*
1,1,$1+$1,$4,$5*
1,1,$1+$1,$6,$7*
1,1,$1+$1,$8,$9*
0 Add four rect primitives between the rounded corners*
20,1,$1+$1,$2,$3,$4,$5,0*
20,1,$1+$1,$4,$5,$6,$7,0*
20,1,$1+$1,$6,$7,$8,$9,0*
20,1,$1+$1,$8,$9,$2,$3,0*%
G04 Aperture macros list end*
%ADD10C,0.150000*%
%ADD11C,0.120000*%
%ADD12RoundRect,0.218750X-0.218750X-0.256250X0.218750X-0.256250X0.218750X0.256250X-0.218750X0.256250X0*%
%ADD13R,1.700000X1.700000*%
%ADD14C,1.700000*%
%ADD15RoundRect,0.200000X0.275000X-0.200000X0.275000X0.200000X-0.275000X0.200000X-0.275000X-0.200000X0*%
%ADD16RoundRect,0.087500X0.250000X0.087500X-0.250000X0.087500X-0.250000X-0.087500X0.250000X-0.087500X0*%
%ADD17RoundRect,0.225000X0.250000X-0.225000X0.250000X0.225000X-0.250000X0.225000X-0.250000X-0.225000X0*%
%ADD18RoundRect,0.200000X0.200000X0.275000X-0.200000X0.275000X-0.200000X-0.275000X0.200000X-0.275000X0*%
%ADD19C,2.200000*%
G04 APERTURE END LIST*
D10*
X109615715Y-102754819D02*
X109615715Y-101754819D01*
X109615715Y-101754819D02*
X109853810Y-101754819D01*
X109853810Y-101754819D02*
X109996667Y-101802438D01*
X109996667Y-101802438D02*
X110091905Y-101897676D01*
X110091905Y-101897676D02*
X110139524Y-101992914D01*
X110139524Y-101992914D02*
X110187143Y-102183390D01*
X110187143Y-102183390D02*
X110187143Y-102326247D01*
X110187143Y-102326247D02*
X110139524Y-102516723D01*
X110139524Y-102516723D02*
X110091905Y-102611961D01*
X110091905Y-102611961D02*
X109996667Y-102707200D01*
X109996667Y-102707200D02*
X109853810Y-102754819D01*
X109853810Y-102754819D02*
X109615715Y-102754819D01*
X111139524Y-102754819D02*
X110568096Y-102754819D01*
X110853810Y-102754819D02*
X110853810Y-101754819D01*
X110853810Y-101754819D02*
X110758572Y-101897676D01*
X110758572Y-101897676D02*
X110663334Y-101992914D01*
X110663334Y-101992914D02*
X110568096Y-102040533D01*
X106533333Y-112261009D02*
X106200000Y-111784818D01*
X105961905Y-112261009D02*
X105961905Y-111261009D01*
X105961905Y-111261009D02*
X106342857Y-111261009D01*
X106342857Y-111261009D02*
X106438095Y-111308628D01*
X106438095Y-111308628D02*
X106485714Y-111356247D01*
X106485714Y-111356247D02*
X106533333Y-111451485D01*
X106533333Y-111451485D02*
X106533333Y-111594342D01*
X106533333Y-111594342D02*
X106485714Y-111689580D01*
X106485714Y-111689580D02*
X106438095Y-111737199D01*
X106438095Y-111737199D02*
X106342857Y-111784818D01*
X106342857Y-111784818D02*
X105961905Y-111784818D01*
X107485714Y-112261009D02*
X106914286Y-112261009D01*
X107200000Y-112261009D02*
X107200000Y-111261009D01*
X107200000Y-111261009D02*
X107104762Y-111403866D01*
X107104762Y-111403866D02*
X107009524Y-111499104D01*
X107009524Y-111499104D02*
X106914286Y-111546723D01*
X116036583Y-106554819D02*
X115703250Y-106078628D01*
X115465155Y-106554819D02*
X115465155Y-105554819D01*
X115465155Y-105554819D02*
X115846107Y-105554819D01*
X115846107Y-105554819D02*
X115941345Y-105602438D01*
X115941345Y-105602438D02*
X115988964Y-105650057D01*
X115988964Y-105650057D02*
X116036583Y-105745295D01*
X116036583Y-105745295D02*
X116036583Y-105888152D01*
X116036583Y-105888152D02*
X115988964Y-105983390D01*
X115988964Y-105983390D02*
X115941345Y-106031009D01*
X115941345Y-106031009D02*
X115846107Y-106078628D01*
X115846107Y-106078628D02*
X115465155Y-106078628D01*
X116369917Y-105554819D02*
X116988964Y-105554819D01*
X116988964Y-105554819D02*
X116655631Y-105935771D01*
X116655631Y-105935771D02*
X116798488Y-105935771D01*
X116798488Y-105935771D02*
X116893726Y-105983390D01*
X116893726Y-105983390D02*
X116941345Y-106031009D01*
X116941345Y-106031009D02*
X116988964Y-106126247D01*
X116988964Y-106126247D02*
X116988964Y-106364342D01*
X116988964Y-106364342D02*
X116941345Y-106459580D01*
X116941345Y-106459580D02*
X116893726Y-106507200D01*
X116893726Y-106507200D02*
X116798488Y-106554819D01*
X116798488Y-106554819D02*
X116512774Y-106554819D01*
X116512774Y-106554819D02*
X116417536Y-106507200D01*
X116417536Y-106507200D02*
X116369917Y-106459580D01*
X105230083Y-104659580D02*
X105182464Y-104707200D01*
X105182464Y-104707200D02*
X105039607Y-104754819D01*
X105039607Y-104754819D02*
X104944369Y-104754819D01*
X104944369Y-104754819D02*
X104801512Y-104707200D01*
X104801512Y-104707200D02*
X104706274Y-104611961D01*
X104706274Y-104611961D02*
X104658655Y-104516723D01*
X104658655Y-104516723D02*
X104611036Y-104326247D01*
X104611036Y-104326247D02*
X104611036Y-104183390D01*
X104611036Y-104183390D02*
X104658655Y-103992914D01*
X104658655Y-103992914D02*
X104706274Y-103897676D01*
X104706274Y-103897676D02*
X104801512Y-103802438D01*
X104801512Y-103802438D02*
X104944369Y-103754819D01*
X104944369Y-103754819D02*
X105039607Y-103754819D01*
X105039607Y-103754819D02*
X105182464Y-103802438D01*
X105182464Y-103802438D02*
X105230083Y-103850057D01*
X106182464Y-104754819D02*
X105611036Y-104754819D01*
X105896750Y-104754819D02*
X105896750Y-103754819D01*
X105896750Y-103754819D02*
X105801512Y-103897676D01*
X105801512Y-103897676D02*
X105706274Y-103992914D01*
X105706274Y-103992914D02*
X105611036Y-104040533D01*
X110333333Y-111558069D02*
X110000000Y-111081878D01*
X109761905Y-111558069D02*
X109761905Y-110558069D01*
X109761905Y-110558069D02*
X110142857Y-110558069D01*
X110142857Y-110558069D02*
X110238095Y-110605688D01*
X110238095Y-110605688D02*
X110285714Y-110653307D01*
X110285714Y-110653307D02*
X110333333Y-110748545D01*
X110333333Y-110748545D02*
X110333333Y-110891402D01*
X110333333Y-110891402D02*
X110285714Y-110986640D01*
X110285714Y-110986640D02*
X110238095Y-111034259D01*
X110238095Y-111034259D02*
X110142857Y-111081878D01*
X110142857Y-111081878D02*
X109761905Y-111081878D01*
X110714286Y-110653307D02*
X110761905Y-110605688D01*
X110761905Y-110605688D02*
X110857143Y-110558069D01*
X110857143Y-110558069D02*
X111095238Y-110558069D01*
X111095238Y-110558069D02*
X111190476Y-110605688D01*
X111190476Y-110605688D02*
X111238095Y-110653307D01*
X111238095Y-110653307D02*
X111285714Y-110748545D01*
X111285714Y-110748545D02*
X111285714Y-110843783D01*
X111285714Y-110843783D02*
X111238095Y-110986640D01*
X111238095Y-110986640D02*
X110666667Y-111558069D01*
X110666667Y-111558069D02*
X111285714Y-111558069D01*
X118938095Y-107678069D02*
X118938095Y-106678069D01*
X118938095Y-107154259D02*
X119509523Y-107154259D01*
X119509523Y-107678069D02*
X119509523Y-106678069D01*
X120509523Y-107678069D02*
X119938095Y-107678069D01*
X120223809Y-107678069D02*
X120223809Y-106678069D01*
X120223809Y-106678069D02*
X120128571Y-106820926D01*
X120128571Y-106820926D02*
X120033333Y-106916164D01*
X120033333Y-106916164D02*
X119938095Y-106963783D01*
X115038095Y-111154819D02*
X115038095Y-110154819D01*
X115038095Y-110631009D02*
X115609523Y-110631009D01*
X115609523Y-111154819D02*
X115609523Y-110154819D01*
X116038095Y-110250057D02*
X116085714Y-110202438D01*
X116085714Y-110202438D02*
X116180952Y-110154819D01*
X116180952Y-110154819D02*
X116419047Y-110154819D01*
X116419047Y-110154819D02*
X116514285Y-110202438D01*
X116514285Y-110202438D02*
X116561904Y-110250057D01*
X116561904Y-110250057D02*
X116609523Y-110345295D01*
X116609523Y-110345295D02*
X116609523Y-110440533D01*
X116609523Y-110440533D02*
X116561904Y-110583390D01*
X116561904Y-110583390D02*
X115990476Y-111154819D01*
X115990476Y-111154819D02*
X116609523Y-111154819D01*
D11*
%TO.C,D1*%
X111815000Y-101565000D02*
X111815000Y-103035000D01*
X111815000Y-103035000D02*
X114100000Y-103035000D01*
X114100000Y-101565000D02*
X111815000Y-101565000D01*
%TO.C,J1*%
X101220000Y-101920000D02*
X102600000Y-101920000D01*
X101220000Y-103300000D02*
X101220000Y-101920000D01*
X101220000Y-104570000D02*
X101220000Y-112300000D01*
X101220000Y-104570000D02*
X103980000Y-104570000D01*
X101220000Y-112300000D02*
X103980000Y-112300000D01*
X103980000Y-104570000D02*
X103980000Y-112300000D01*
%TO.C,R1*%
X106177500Y-109137258D02*
X106177500Y-108662742D01*
X107222500Y-109137258D02*
X107222500Y-108662742D01*
%TO.C,R3*%
X113777500Y-106337258D02*
X113777500Y-105862742D01*
X114822500Y-106337258D02*
X114822500Y-105862742D01*
%TO.C,U1*%
X110090000Y-104765000D02*
X111510000Y-104765000D01*
X111225568Y-106635000D02*
X110090000Y-106635000D01*
X111660000Y-106830000D02*
X111380000Y-106830000D01*
X111520000Y-106640000D01*
X111660000Y-106830000D01*
G36*
X111660000Y-106830000D02*
G01*
X111380000Y-106830000D01*
X111520000Y-106640000D01*
X111660000Y-106830000D01*
G37*
%TO.C,C1*%
X106790000Y-104440580D02*
X106790000Y-104159420D01*
X107810000Y-104440580D02*
X107810000Y-104159420D01*
%TO.C,R2*%
X110737258Y-108677500D02*
X110262742Y-108677500D01*
X110737258Y-109722500D02*
X110262742Y-109722500D01*
%TD*%
%LPC*%
D12*
%TO.C,D1*%
X112512500Y-102300000D03*
X114087500Y-102300000D03*
%TD*%
D13*
%TO.C,J1*%
X102600000Y-103300000D03*
D14*
X102600000Y-105840000D03*
X102600000Y-108380000D03*
X102600000Y-110920000D03*
%TD*%
D15*
%TO.C,R1*%
X106700000Y-109725000D03*
X106700000Y-108075000D03*
%TD*%
%TO.C,R3*%
X114300000Y-106925000D03*
X114300000Y-105275000D03*
%TD*%
D16*
%TO.C,U1*%
X111512500Y-106200000D03*
X111512500Y-105700000D03*
X111512500Y-105200000D03*
X110087500Y-105200000D03*
X110087500Y-105700000D03*
X110087500Y-106200000D03*
%TD*%
D17*
%TO.C,C1*%
X107300000Y-105075000D03*
X107300000Y-103525000D03*
%TD*%
D18*
%TO.C,R2*%
X111325000Y-109200000D03*
X109675000Y-109200000D03*
%TD*%
D19*
%TO.C,H1*%
X119700000Y-103600000D03*
%TD*%
%TO.C,H2*%
X119700000Y-110700000D03*
%TD*%
%LPD*%
M02*
