%TF.GenerationSoftware,KiCad,Pcbnew,9.0.9-9.0.9~ubuntu24.04.1*%
%TF.CreationDate,2026-09-24T20:21:33+00:00*%
%TF.ProjectId,temperature-sensor,74656d70-6572-4617-9475-72652d73656e,rev?*%
%TF.SameCoordinates,Original*%
%TF.FileFunction,Copper,L1,Top*%
%TF.FilePolarity,Positive*%
%FSLAX46Y46*%
G04 Gerber Fmt 4.6, Leading zero omitted, Abs format (unit mm)*
G04 Created by KiCad (PCBNEW 9.0.9-9.0.9~ubuntu24.04.1) date 2026-09-24 20:21:33*
%MOMM*%
%LPD*%
G01*
G04 APERTURE LIST*
G04 Aperture macros list*
%AMRoundRect*
0 Rectangle with rounded corners*
0 $1 Rounding radius*
0 $2 $3 $4 $5 $6 $7 $8 $9 X,Y pos of 4 corners*
0 Add a 4 corners polygon primitive as box body*
4,1,4,$2,$3,$4,$5,$6,$7,$8,$9,$2,$3,0*
0 Add four circle primitives for the rounded corners*
1,1,$1+$1,$2,$3*
1,1,$1+$1,$4,$5*
1,1,$1+$1,$6,$7*
1,1,$1+$1,$8,$9*
0 Add four rect primitives between the rounded corners*
20,1,$1+$1,$2,$3,$4,$5,0*
20,1,$1+$1,$4,$5,$6,$7,0*
20,1,$1+$1,$6,$7,$8,$9,0*
20,1,$1+$1,$8,$9,$2,$3,0*%
G04 Aperture macros list end*
%TA.AperFunction,SMDPad,CuDef*%
%ADD10RoundRect,0.218750X-0.218750X-0.256250X0.218750X-0.256250X0.218750X0.256250X-0.218750X0.256250X0*%
%TD*%
%TA.AperFunction,ComponentPad*%
%ADD11R,1.700000X1.700000*%
%TD*%
%TA.AperFunction,ComponentPad*%
%ADD12C,1.700000*%
%TD*%
%TA.AperFunction,SMDPad,CuDef*%
%ADD13RoundRect,0.200000X0.275000X-0.200000X0.275000X0.200000X-0.275000X0.200000X-0.275000X-0.200000X0*%
%TD*%
%TA.AperFunction,SMDPad,CuDef*%
%ADD14RoundRect,0.087500X0.250000X0.087500X-0.250000X0.087500X-0.250000X-0.087500X0.250000X-0.087500X0*%
%TD*%
%TA.AperFunction,SMDPad,CuDef*%
%ADD15RoundRect,0.225000X0.250000X-0.225000X0.250000X0.225000X-0.250000X0.225000X-0.250000X-0.225000X0*%
%TD*%
%TA.AperFunction,SMDPad,CuDef*%
%ADD16RoundRect,0.200000X0.200000X0.275000X-0.200000X0.275000X-0.200000X-0.275000X0.200000X-0.275000X0*%
%TD*%
%TA.AperFunction,ViaPad*%
%ADD17C,0.600000*%
%TD*%
%TA.AperFunction,Conductor*%
%ADD18C,0.250000*%
%TD*%
G04 APERTURE END LIST*
D10*
%TO.P,D1,1*%
%TO.N,GND*%
X112512500Y-102300000D03*
%TO.P,D1,2*%
%TO.N,/indicator/LED_A*%
X114087500Y-102300000D03*
%TD*%
D11*
%TO.P,J1,1*%
%TO.N,VCC*%
X102600000Y-103300000D03*
D12*
%TO.P,J1,2*%
%TO.N,GND*%
X102600000Y-105840000D03*
%TO.P,J1,3*%
%TO.N,SDA*%
X102600000Y-108380000D03*
%TO.P,J1,4*%
%TO.N,SCL*%
X102600000Y-110920000D03*
%TD*%
D13*
%TO.P,R1,1*%
%TO.N,VCC*%
X106700000Y-109725000D03*
%TO.P,R1,2*%
%TO.N,SDA*%
X106700000Y-108075000D03*
%TD*%
%TO.P,R3,1*%
%TO.N,VCC*%
X114300000Y-106925000D03*
%TO.P,R3,2*%
%TO.N,/indicator/LED_A*%
X114300000Y-105275000D03*
%TD*%
D14*
%TO.P,U1,1*%
%TO.N,SCL*%
X111512500Y-106200000D03*
%TO.P,U1,2*%
%TO.N,GND*%
X111512500Y-105700000D03*
%TO.P,U1,3*%
%TO.N,N/C*%
X111512500Y-105200000D03*
%TO.P,U1,4*%
%TO.N,GND*%
X110087500Y-105200000D03*
%TO.P,U1,5*%
%TO.N,VCC*%
X110087500Y-105700000D03*
%TO.P,U1,6*%
%TO.N,SDA*%
X110087500Y-106200000D03*
%TD*%
D15*
%TO.P,C1,1*%
%TO.N,VCC*%
X107300000Y-105075000D03*
%TO.P,C1,2*%
%TO.N,GND*%
X107300000Y-103525000D03*
%TD*%
D16*
%TO.P,R2,1*%
%TO.N,VCC*%
X111325000Y-109200000D03*
%TO.P,R2,2*%
%TO.N,SCL*%
X109675000Y-109200000D03*
%TD*%
D17*
%TO.N,/indicator/LED_A*%
X115506300Y-102161800D03*
X113372600Y-105350600D03*
%TO.N,GND*%
X105910400Y-103994300D03*
%TO.N,SCL*%
X111084300Y-106817000D03*
X107768400Y-110920000D03*
X108837400Y-109200000D03*
%TO.N,VCC*%
X105981600Y-109006600D03*
X110661200Y-109927000D03*
X106166400Y-105075000D03*
X109979600Y-110293200D03*
%TD*%
D18*
%TO.N,/indicator/LED_A*%
X114225700Y-102161800D02*
X114087500Y-102300000D01*
X115506300Y-102161800D02*
X114225700Y-102161800D01*
X114300000Y-105275000D02*
X113448200Y-105275000D01*
X113448200Y-105275000D02*
X113372600Y-105350600D01*
%TO.N,GND*%
X105910400Y-103994300D02*
X106830700Y-103994300D01*
X110087500Y-103525000D02*
X111287500Y-103525000D01*
X110974200Y-105700000D02*
X111512500Y-105700000D01*
X111287500Y-103525000D02*
X112512500Y-102300000D01*
X110474200Y-105200000D02*
X110974200Y-105700000D01*
X107300000Y-103525000D02*
X110087500Y-103525000D01*
X110087500Y-105200000D02*
X110474200Y-105200000D01*
X110087500Y-103525000D02*
X110087500Y-105200000D01*
X106830700Y-103994300D02*
X107300000Y-103525000D01*
%TO.N,SCL*%
X111512500Y-106388800D02*
X111084300Y-106817000D01*
X102600000Y-110920000D02*
X107768400Y-110920000D01*
X111512500Y-106200000D02*
X111512500Y-106388800D01*
X109675000Y-109200000D02*
X108837400Y-109200000D01*
%TO.N,SDA*%
X108212500Y-108075000D02*
X106700000Y-108075000D01*
X106700000Y-108075000D02*
X102905000Y-108075000D01*
X102905000Y-108075000D02*
X102600000Y-108380000D01*
X110087500Y-106200000D02*
X108212500Y-108075000D01*
%TO.N,VCC*%
X106166400Y-105075000D02*
X105484500Y-105075000D01*
X107925000Y-105700000D02*
X110087500Y-105700000D01*
X113600000Y-106925000D02*
X114300000Y-106925000D01*
X102600000Y-103300000D02*
X103709500Y-103300000D01*
X106700000Y-109725000D02*
X105981600Y-109006600D01*
X111325000Y-109200000D02*
X113600000Y-106925000D01*
X111325000Y-109263200D02*
X110661200Y-109927000D01*
X111325000Y-109200000D02*
X111325000Y-109263200D01*
X107300000Y-105075000D02*
X107925000Y-105700000D01*
X109979600Y-110293200D02*
X107268200Y-110293200D01*
X107300000Y-105075000D02*
X106166400Y-105075000D01*
X105484500Y-105075000D02*
X103709500Y-103300000D01*
X107268200Y-110293200D02*
X106700000Y-109725000D01*
%TD*%
%TA.AperFunction,Conductor*%
%TO.N,GND*%
G36*
X103795703Y-103762123D02*
G01*
X103802181Y-103768155D01*
X105334106Y-105300080D01*
X105357951Y-105309957D01*
X105357953Y-105309958D01*
X105357954Y-105309958D01*
X105431689Y-105340500D01*
X105757576Y-105340500D01*
X105824615Y-105360185D01*
X105845256Y-105376818D01*
X105874171Y-105405732D01*
X105895927Y-105427488D01*
X105996373Y-105485481D01*
X106108407Y-105515500D01*
X106108409Y-105515500D01*
X106224391Y-105515500D01*
X106224393Y-105515500D01*
X106336427Y-105485481D01*
X106436873Y-105427488D01*
X106472102Y-105392259D01*
X106487544Y-105376818D01*
X106514470Y-105362115D01*
X106540289Y-105345523D01*
X106546491Y-105344631D01*
X106548867Y-105343334D01*
X106575224Y-105340500D01*
X106585556Y-105340500D01*
X106652595Y-105360185D01*
X106696956Y-105410040D01*
X106748423Y-105515319D01*
X106834677Y-105601573D01*
X106834678Y-105601573D01*
X106834680Y-105601575D01*
X106944268Y-105655149D01*
X107015312Y-105665500D01*
X107463664Y-105665500D01*
X107530703Y-105685185D01*
X107551345Y-105701819D01*
X107774606Y-105925080D01*
X107785393Y-105929548D01*
X107797342Y-105934498D01*
X107797347Y-105934499D01*
X107797351Y-105934501D01*
X107872189Y-105965500D01*
X109485500Y-105965500D01*
X109494185Y-105968050D01*
X109503147Y-105966762D01*
X109527187Y-105977740D01*
X109552539Y-105985185D01*
X109558466Y-105992025D01*
X109566703Y-105995787D01*
X109580992Y-106018021D01*
X109598294Y-106037989D01*
X109600581Y-106048503D01*
X109604477Y-106054565D01*
X109609500Y-106089500D01*
X109609500Y-106251164D01*
X109589815Y-106318203D01*
X109573181Y-106338845D01*
X108138845Y-107773181D01*
X108077522Y-107806666D01*
X108051164Y-107809500D01*
X107399154Y-107809500D01*
X107332115Y-107789815D01*
X107286772Y-107737905D01*
X107283707Y-107731333D01*
X107258224Y-107676684D01*
X107173316Y-107591776D01*
X107064487Y-107541028D01*
X107064485Y-107541027D01*
X107064486Y-107541027D01*
X107014901Y-107534500D01*
X106385105Y-107534500D01*
X106369386Y-107536569D01*
X106335513Y-107541028D01*
X106335511Y-107541029D01*
X106335509Y-107541029D01*
X106226683Y-107591776D01*
X106141776Y-107676683D01*
X106113228Y-107737905D01*
X106067055Y-107790344D01*
X106000846Y-107809500D01*
X103476348Y-107809500D01*
X103409309Y-107789815D01*
X103373244Y-107754388D01*
X103369371Y-107748591D01*
X103231410Y-107610630D01*
X103231406Y-107610627D01*
X103069184Y-107502233D01*
X103069171Y-107502226D01*
X102888922Y-107427565D01*
X102888910Y-107427562D01*
X102824083Y-107414667D01*
X102762172Y-107382282D01*
X102727598Y-107321567D01*
X102731337Y-107251797D01*
X102772204Y-107195125D01*
X102828876Y-107170577D01*
X102916127Y-107156757D01*
X102916130Y-107156757D01*
X103118217Y-107091095D01*
X103307554Y-106994622D01*
X103361716Y-106955270D01*
X103361717Y-106955270D01*
X102729408Y-106322962D01*
X102792993Y-106305925D01*
X102907007Y-106240099D01*
X103000099Y-106147007D01*
X103065925Y-106032993D01*
X103082962Y-105969408D01*
X103715270Y-106601717D01*
X103715270Y-106601716D01*
X103754622Y-106547554D01*
X103851095Y-106358217D01*
X103916757Y-106156130D01*
X103916757Y-106156127D01*
X103950000Y-105946246D01*
X103950000Y-105733753D01*
X103916757Y-105523872D01*
X103916757Y-105523869D01*
X103851095Y-105321782D01*
X103754624Y-105132449D01*
X103715270Y-105078282D01*
X103715269Y-105078282D01*
X103082962Y-105710590D01*
X103065925Y-105647007D01*
X103000099Y-105532993D01*
X102907007Y-105439901D01*
X102792993Y-105374075D01*
X102729409Y-105357037D01*
X103361716Y-104724728D01*
X103307550Y-104685375D01*
X103118217Y-104588904D01*
X102944406Y-104532430D01*
X102886731Y-104492993D01*
X102859532Y-104428634D01*
X102871447Y-104359788D01*
X102918691Y-104308312D01*
X102982722Y-104290499D01*
X103463840Y-104290499D01*
X103504821Y-104282349D01*
X103551295Y-104251295D01*
X103582349Y-104204821D01*
X103590500Y-104163841D01*
X103590500Y-103855836D01*
X103610185Y-103788797D01*
X103662989Y-103743042D01*
X103732147Y-103733098D01*
X103795703Y-103762123D01*
G37*
%TD.AperFunction*%
%TA.AperFunction,Conductor*%
G36*
X112153877Y-101120185D02*
G01*
X112199632Y-101172989D01*
X112209576Y-101242147D01*
X112180551Y-101305703D01*
X112125842Y-101342206D01*
X111987927Y-101387906D01*
X111987922Y-101387908D01*
X111844919Y-101476114D01*
X111726114Y-101594919D01*
X111637908Y-101737922D01*
X111637906Y-101737927D01*
X111585057Y-101897416D01*
X111575000Y-101995849D01*
X111575000Y-102050000D01*
X112388500Y-102050000D01*
X112455539Y-102069685D01*
X112501294Y-102122489D01*
X112512500Y-102174000D01*
X112512500Y-102300000D01*
X112638500Y-102300000D01*
X112705539Y-102319685D01*
X112751294Y-102372489D01*
X112762500Y-102424000D01*
X112762500Y-103274999D01*
X112779136Y-103274999D01*
X112779152Y-103274998D01*
X112877583Y-103264943D01*
X113037072Y-103212093D01*
X113037077Y-103212091D01*
X113180080Y-103123885D01*
X113298885Y-103005080D01*
X113387091Y-102862077D01*
X113387093Y-102862072D01*
X113393403Y-102843029D01*
X113433173Y-102785583D01*
X113497688Y-102758758D01*
X113566464Y-102771070D01*
X113598791Y-102794348D01*
X113657109Y-102852666D01*
X113657110Y-102852666D01*
X113657112Y-102852668D01*
X113764826Y-102905326D01*
X113834658Y-102915500D01*
X113834664Y-102915500D01*
X114340336Y-102915500D01*
X114340342Y-102915500D01*
X114410174Y-102905326D01*
X114517888Y-102852668D01*
X114602668Y-102767888D01*
X114655326Y-102660174D01*
X114665500Y-102590342D01*
X114665500Y-102551300D01*
X114685185Y-102484261D01*
X114737989Y-102438506D01*
X114789500Y-102427300D01*
X115097476Y-102427300D01*
X115164515Y-102446985D01*
X115185156Y-102463618D01*
X115235823Y-102514284D01*
X115235827Y-102514288D01*
X115336273Y-102572281D01*
X115448307Y-102602300D01*
X115448309Y-102602300D01*
X115564291Y-102602300D01*
X115564293Y-102602300D01*
X115676327Y-102572281D01*
X115776773Y-102514288D01*
X115858788Y-102432273D01*
X115916781Y-102331827D01*
X115946800Y-102219793D01*
X115946800Y-102103807D01*
X115916781Y-101991773D01*
X115858788Y-101891327D01*
X115776773Y-101809312D01*
X115726550Y-101780315D01*
X115676328Y-101751319D01*
X115620310Y-101736309D01*
X115564293Y-101721300D01*
X115448307Y-101721300D01*
X115336271Y-101751319D01*
X115235827Y-101809312D01*
X115235823Y-101809315D01*
X115185156Y-101859982D01*
X115123833Y-101893466D01*
X115097476Y-101896300D01*
X114711453Y-101896300D01*
X114644414Y-101876615D01*
X114610850Y-101838896D01*
X114608640Y-101840475D01*
X114602668Y-101832111D01*
X114517890Y-101747333D01*
X114410175Y-101694674D01*
X114400198Y-101693220D01*
X114340342Y-101684500D01*
X113834658Y-101684500D01*
X113782284Y-101692130D01*
X113764824Y-101694674D01*
X113657111Y-101747332D01*
X113598791Y-101805652D01*
X113537467Y-101839136D01*
X113467776Y-101834151D01*
X113411842Y-101792280D01*
X113393403Y-101756971D01*
X113387092Y-101737926D01*
X113387091Y-101737922D01*
X113298885Y-101594919D01*
X113180080Y-101476114D01*
X113037077Y-101387908D01*
X113037072Y-101387906D01*
X112899158Y-101342206D01*
X112841713Y-101302433D01*
X112814890Y-101237917D01*
X112827205Y-101169142D01*
X112874748Y-101117942D01*
X112938162Y-101100500D01*
X121452406Y-101100500D01*
X121493907Y-101100500D01*
X121506061Y-101101097D01*
X121624317Y-101112744D01*
X121648145Y-101117483D01*
X121756005Y-101150202D01*
X121778454Y-101159501D01*
X121877850Y-101212629D01*
X121898061Y-101226134D01*
X121985180Y-101297631D01*
X122002368Y-101314819D01*
X122073865Y-101401938D01*
X122087370Y-101422149D01*
X122140495Y-101521538D01*
X122149798Y-101543997D01*
X122182514Y-101651848D01*
X122187256Y-101675688D01*
X122198903Y-101793937D01*
X122199500Y-101806092D01*
X122199500Y-112493907D01*
X122198903Y-112506061D01*
X122198903Y-112506062D01*
X122187256Y-112624311D01*
X122182514Y-112648151D01*
X122149798Y-112756002D01*
X122140495Y-112778461D01*
X122087370Y-112877850D01*
X122073865Y-112898061D01*
X122002368Y-112985180D01*
X121985180Y-113002368D01*
X121898061Y-113073865D01*
X121877850Y-113087370D01*
X121778461Y-113140495D01*
X121756002Y-113149798D01*
X121648151Y-113182514D01*
X121624311Y-113187256D01*
X121537215Y-113195834D01*
X121506060Y-113198903D01*
X121493907Y-113199500D01*
X101006093Y-113199500D01*
X100993939Y-113198903D01*
X100943081Y-113193893D01*
X100875688Y-113187256D01*
X100851848Y-113182514D01*
X100743997Y-113149798D01*
X100721540Y-113140496D01*
X100622149Y-113087370D01*
X100601938Y-113073865D01*
X100514819Y-113002368D01*
X100497631Y-112985180D01*
X100426134Y-112898061D01*
X100412629Y-112877850D01*
X100359501Y-112778454D01*
X100350201Y-112756002D01*
X100317483Y-112648145D01*
X100312744Y-112624317D01*
X100301097Y-112506061D01*
X100300500Y-112493907D01*
X100300500Y-105733753D01*
X101250000Y-105733753D01*
X101250000Y-105946246D01*
X101283242Y-106156127D01*
X101283242Y-106156130D01*
X101348904Y-106358217D01*
X101445375Y-106547550D01*
X101484728Y-106601716D01*
X102117037Y-105969408D01*
X102134075Y-106032993D01*
X102199901Y-106147007D01*
X102292993Y-106240099D01*
X102407007Y-106305925D01*
X102470590Y-106322962D01*
X101838282Y-106955269D01*
X101838282Y-106955270D01*
X101892449Y-106994624D01*
X102081782Y-107091095D01*
X102283870Y-107156757D01*
X102371123Y-107170577D01*
X102434258Y-107200506D01*
X102471189Y-107259818D01*
X102470191Y-107329680D01*
X102431581Y-107387913D01*
X102375917Y-107414667D01*
X102311087Y-107427562D01*
X102311077Y-107427565D01*
X102130828Y-107502226D01*
X102130815Y-107502233D01*
X101968593Y-107610627D01*
X101968589Y-107610630D01*
X101830630Y-107748589D01*
X101830627Y-107748593D01*
X101722233Y-107910815D01*
X101722226Y-107910828D01*
X101647565Y-108091077D01*
X101647562Y-108091089D01*
X101609500Y-108282439D01*
X101609500Y-108477560D01*
X101647562Y-108668910D01*
X101647565Y-108668922D01*
X101722226Y-108849171D01*
X101722233Y-108849184D01*
X101830627Y-109011406D01*
X101830630Y-109011410D01*
X101968589Y-109149369D01*
X101968593Y-109149372D01*
X102130815Y-109257766D01*
X102130828Y-109257773D01*
X102177428Y-109277075D01*
X102311082Y-109332436D01*
X102445057Y-109359085D01*
X102502439Y-109370499D01*
X102502443Y-109370500D01*
X102502444Y-109370500D01*
X102697557Y-109370500D01*
X102697558Y-109370499D01*
X102888918Y-109332436D01*
X103069178Y-109257770D01*
X103231407Y-109149372D01*
X103369372Y-109011407D01*
X103477770Y-108849178D01*
X103552436Y-108668918D01*
X103590500Y-108477556D01*
X103590500Y-108464500D01*
X103610185Y-108397461D01*
X103662989Y-108351706D01*
X103714500Y-108340500D01*
X105823684Y-108340500D01*
X105890723Y-108360185D01*
X105936478Y-108412989D01*
X105946422Y-108482147D01*
X105917397Y-108545703D01*
X105858619Y-108583477D01*
X105855797Y-108584269D01*
X105833987Y-108590113D01*
X105811572Y-108596119D01*
X105711127Y-108654112D01*
X105711124Y-108654114D01*
X105629114Y-108736124D01*
X105629112Y-108736127D01*
X105571119Y-108836571D01*
X105541100Y-108948607D01*
X105541100Y-109064592D01*
X105571119Y-109176628D01*
X105579433Y-109191027D01*
X105629112Y-109277073D01*
X105711127Y-109359088D01*
X105811573Y-109417081D01*
X105923607Y-109447100D01*
X105923609Y-109447100D01*
X105960500Y-109447100D01*
X106027539Y-109466785D01*
X106073294Y-109519589D01*
X106084500Y-109571100D01*
X106084500Y-109964894D01*
X106084851Y-109967562D01*
X106091028Y-110014487D01*
X106091029Y-110014489D01*
X106091029Y-110014490D01*
X106129517Y-110097027D01*
X106141776Y-110123316D01*
X106226684Y-110208224D01*
X106335513Y-110258972D01*
X106385099Y-110265500D01*
X106813663Y-110265499D01*
X106843109Y-110274145D01*
X106873090Y-110280667D01*
X106878103Y-110284419D01*
X106880702Y-110285183D01*
X106901344Y-110301818D01*
X107042345Y-110442819D01*
X107075830Y-110504142D01*
X107070846Y-110573834D01*
X107028974Y-110629767D01*
X106963510Y-110654184D01*
X106954664Y-110654500D01*
X103644990Y-110654500D01*
X103577951Y-110634815D01*
X103532196Y-110582011D01*
X103530429Y-110577952D01*
X103477773Y-110450828D01*
X103477766Y-110450815D01*
X103369372Y-110288593D01*
X103369369Y-110288589D01*
X103231410Y-110150630D01*
X103231406Y-110150627D01*
X103069184Y-110042233D01*
X103069171Y-110042226D01*
X102888922Y-109967565D01*
X102888910Y-109967562D01*
X102697560Y-109929500D01*
X102697556Y-109929500D01*
X102502444Y-109929500D01*
X102502439Y-109929500D01*
X102311089Y-109967562D01*
X102311077Y-109967565D01*
X102130828Y-110042226D01*
X102130815Y-110042233D01*
X101968593Y-110150627D01*
X101968589Y-110150630D01*
X101830630Y-110288589D01*
X101830627Y-110288593D01*
X101722233Y-110450815D01*
X101722226Y-110450828D01*
X101647565Y-110631077D01*
X101647562Y-110631089D01*
X101609500Y-110822439D01*
X101609500Y-111017560D01*
X101647562Y-111208910D01*
X101647565Y-111208922D01*
X101722226Y-111389171D01*
X101722233Y-111389184D01*
X101830627Y-111551406D01*
X101830630Y-111551410D01*
X101968589Y-111689369D01*
X101968593Y-111689372D01*
X102130815Y-111797766D01*
X102130828Y-111797773D01*
X102269120Y-111855055D01*
X102311082Y-111872436D01*
X102472969Y-111904637D01*
X102502439Y-111910499D01*
X102502443Y-111910500D01*
X102502444Y-111910500D01*
X102697557Y-111910500D01*
X102697558Y-111910499D01*
X102888918Y-111872436D01*
X103069178Y-111797770D01*
X103231407Y-111689372D01*
X103369372Y-111551407D01*
X103477770Y-111389178D01*
X103494828Y-111347997D01*
X103530429Y-111262048D01*
X103574270Y-111207644D01*
X103640564Y-111185579D01*
X103644990Y-111185500D01*
X107359576Y-111185500D01*
X107426615Y-111205185D01*
X107447256Y-111221818D01*
X107487487Y-111262048D01*
X107497927Y-111272488D01*
X107598373Y-111330481D01*
X107710407Y-111360500D01*
X107710409Y-111360500D01*
X107826391Y-111360500D01*
X107826393Y-111360500D01*
X107938427Y-111330481D01*
X108038873Y-111272488D01*
X108120888Y-111190473D01*
X108178881Y-111090027D01*
X108208900Y-110977993D01*
X108208900Y-110862007D01*
X108178881Y-110749973D01*
X108178880Y-110749972D01*
X108178880Y-110749970D01*
X108175838Y-110744702D01*
X108159364Y-110676802D01*
X108182216Y-110610774D01*
X108237136Y-110567583D01*
X108283224Y-110558700D01*
X109570776Y-110558700D01*
X109637815Y-110578385D01*
X109658456Y-110595018D01*
X109693206Y-110629767D01*
X109709127Y-110645688D01*
X109809573Y-110703681D01*
X109921607Y-110733700D01*
X109921609Y-110733700D01*
X110037591Y-110733700D01*
X110037593Y-110733700D01*
X110149627Y-110703681D01*
X110156004Y-110699999D01*
X118348372Y-110699999D01*
X118349351Y-110719929D01*
X118349500Y-110726012D01*
X118349500Y-110806287D01*
X118349499Y-110806287D01*
X118372947Y-110954329D01*
X118373062Y-110955060D01*
X118374343Y-110963690D01*
X118374579Y-110964636D01*
X118375149Y-110968231D01*
X118382753Y-111016238D01*
X118382755Y-111016248D01*
X118397921Y-111062923D01*
X118403503Y-111080103D01*
X118406573Y-111092357D01*
X118416483Y-111120057D01*
X118417060Y-111121832D01*
X118448442Y-111218412D01*
X118488911Y-111297837D01*
X118495362Y-111310497D01*
X118507970Y-111337153D01*
X118514466Y-111347990D01*
X118516400Y-111351786D01*
X118516403Y-111351791D01*
X118544949Y-111407816D01*
X118575659Y-111450085D01*
X118576162Y-111450924D01*
X118581393Y-111457977D01*
X118669896Y-111579792D01*
X118728826Y-111638722D01*
X118744255Y-111655745D01*
X118761277Y-111671173D01*
X118820211Y-111730107D01*
X118941583Y-111818288D01*
X118941584Y-111818288D01*
X118942022Y-111818606D01*
X118949076Y-111823838D01*
X118949914Y-111824340D01*
X118952883Y-111826497D01*
X118952885Y-111826499D01*
X118992171Y-111855042D01*
X118992176Y-111855045D01*
X118992184Y-111855051D01*
X118992187Y-111855052D01*
X118992191Y-111855055D01*
X119048198Y-111883591D01*
X119052002Y-111885529D01*
X119062847Y-111892030D01*
X119089502Y-111904637D01*
X119181588Y-111951557D01*
X119279901Y-111983501D01*
X119307643Y-111993427D01*
X119319892Y-111996495D01*
X119323936Y-111997809D01*
X119323948Y-111997812D01*
X119383757Y-112017246D01*
X119435361Y-112025419D01*
X119436310Y-112025657D01*
X119445005Y-112026946D01*
X119593713Y-112050500D01*
X119677037Y-112050500D01*
X119700000Y-112051628D01*
X119722963Y-112050500D01*
X119806287Y-112050500D01*
X119954346Y-112027048D01*
X119954351Y-112027048D01*
X119955008Y-112026943D01*
X119963690Y-112025657D01*
X119964638Y-112025419D01*
X119968256Y-112024846D01*
X119968258Y-112024846D01*
X119979045Y-112023137D01*
X120016243Y-112017246D01*
X120080103Y-111996496D01*
X120092357Y-111993427D01*
X120120098Y-111983501D01*
X120218412Y-111951557D01*
X120310497Y-111904637D01*
X120337153Y-111892030D01*
X120347997Y-111885529D01*
X120407816Y-111855051D01*
X120450085Y-111824340D01*
X120450924Y-111823838D01*
X120457977Y-111818606D01*
X120579792Y-111730104D01*
X120638722Y-111671173D01*
X120655745Y-111655745D01*
X120671173Y-111638722D01*
X120730104Y-111579792D01*
X120818606Y-111457977D01*
X120823838Y-111450924D01*
X120824340Y-111450085D01*
X120855051Y-111407816D01*
X120885529Y-111347997D01*
X120892030Y-111337153D01*
X120904637Y-111310497D01*
X120951557Y-111218412D01*
X120983501Y-111120098D01*
X120993427Y-111092357D01*
X120996496Y-111080103D01*
X121017246Y-111016243D01*
X121025419Y-110964638D01*
X121025657Y-110963690D01*
X121026946Y-110954994D01*
X121050500Y-110806287D01*
X121050500Y-110722962D01*
X121051628Y-110700000D01*
X121050500Y-110677037D01*
X121050500Y-110593713D01*
X121026946Y-110445005D01*
X121025657Y-110436310D01*
X121025419Y-110435361D01*
X121017246Y-110383757D01*
X120996496Y-110319896D01*
X120993427Y-110307643D01*
X120983501Y-110279901D01*
X120951557Y-110181588D01*
X120904637Y-110089502D01*
X120892030Y-110062847D01*
X120885529Y-110052002D01*
X120867644Y-110016899D01*
X120855055Y-109992191D01*
X120855052Y-109992187D01*
X120855051Y-109992184D01*
X120849826Y-109984993D01*
X120826499Y-109952885D01*
X120826496Y-109952882D01*
X120826474Y-109952852D01*
X120824340Y-109949914D01*
X120823838Y-109949076D01*
X120818606Y-109942022D01*
X120818288Y-109941584D01*
X120818287Y-109941582D01*
X120730107Y-109820211D01*
X120671173Y-109761277D01*
X120655745Y-109744255D01*
X120638722Y-109728826D01*
X120579792Y-109669896D01*
X120457977Y-109581393D01*
X120450924Y-109576162D01*
X120450085Y-109575659D01*
X120407816Y-109544949D01*
X120348843Y-109514901D01*
X120347993Y-109514467D01*
X120337153Y-109507970D01*
X120310512Y-109495369D01*
X120308881Y-109494538D01*
X120308868Y-109494532D01*
X120254411Y-109466785D01*
X120218412Y-109448442D01*
X120121837Y-109417061D01*
X120121837Y-109417062D01*
X120120068Y-109416487D01*
X120092357Y-109406573D01*
X120080103Y-109403503D01*
X120076048Y-109402185D01*
X120076047Y-109402185D01*
X120062923Y-109397921D01*
X120016248Y-109382755D01*
X120016238Y-109382753D01*
X119968231Y-109375149D01*
X119964636Y-109374579D01*
X119963690Y-109374343D01*
X119955060Y-109373062D01*
X119954329Y-109372947D01*
X119954327Y-109372946D01*
X119806287Y-109349500D01*
X119722963Y-109349500D01*
X119700000Y-109348372D01*
X119677037Y-109349500D01*
X119593713Y-109349500D01*
X119593708Y-109349500D01*
X119445601Y-109372958D01*
X119445596Y-109372959D01*
X119444959Y-109373059D01*
X119436310Y-109374343D01*
X119435370Y-109374577D01*
X119431786Y-109375145D01*
X119431773Y-109375148D01*
X119383758Y-109382753D01*
X119383746Y-109382756D01*
X119323950Y-109402185D01*
X119319883Y-109403506D01*
X119307643Y-109406573D01*
X119279959Y-109416476D01*
X119278196Y-109417050D01*
X119278178Y-109417057D01*
X119181592Y-109448441D01*
X119181584Y-109448444D01*
X119091142Y-109494524D01*
X119091143Y-109494525D01*
X119089479Y-109495372D01*
X119062847Y-109507970D01*
X119052009Y-109514465D01*
X119048215Y-109516399D01*
X119048213Y-109516399D01*
X118992190Y-109544945D01*
X118992187Y-109544947D01*
X118952852Y-109573524D01*
X118952851Y-109573523D01*
X118949900Y-109575667D01*
X118949076Y-109576162D01*
X118942074Y-109581353D01*
X118941509Y-109581765D01*
X118941506Y-109581767D01*
X118820211Y-109669892D01*
X118763435Y-109726668D01*
X118763434Y-109726667D01*
X118761255Y-109728845D01*
X118744255Y-109744255D01*
X118728845Y-109761255D01*
X118726687Y-109763414D01*
X118726668Y-109763435D01*
X118669892Y-109820211D01*
X118581767Y-109941506D01*
X118581765Y-109941509D01*
X118581355Y-109942072D01*
X118576162Y-109949076D01*
X118575664Y-109949904D01*
X118573539Y-109952830D01*
X118573524Y-109952852D01*
X118562837Y-109967562D01*
X118544959Y-109992171D01*
X118544947Y-109992187D01*
X118544945Y-109992190D01*
X118516399Y-110048214D01*
X118516399Y-110048215D01*
X118514465Y-110052009D01*
X118507970Y-110062847D01*
X118495373Y-110089478D01*
X118494527Y-110091139D01*
X118448444Y-110181584D01*
X118448441Y-110181592D01*
X118417057Y-110278178D01*
X118416488Y-110279926D01*
X118406573Y-110307643D01*
X118403506Y-110319881D01*
X118402186Y-110323946D01*
X118402185Y-110323950D01*
X118382756Y-110383746D01*
X118382753Y-110383758D01*
X118375150Y-110431760D01*
X118374580Y-110435361D01*
X118374343Y-110436310D01*
X118373062Y-110444943D01*
X118372961Y-110445582D01*
X118372958Y-110445601D01*
X118349500Y-110593707D01*
X118349500Y-110673987D01*
X118349351Y-110680069D01*
X118348372Y-110699999D01*
X110156004Y-110699999D01*
X110250073Y-110645688D01*
X110332088Y-110563673D01*
X110390081Y-110463227D01*
X110396195Y-110440405D01*
X110432559Y-110380746D01*
X110495405Y-110350216D01*
X110548061Y-110352723D01*
X110603207Y-110367500D01*
X110603209Y-110367500D01*
X110719191Y-110367500D01*
X110719193Y-110367500D01*
X110831227Y-110337481D01*
X110931673Y-110279488D01*
X111013688Y-110197473D01*
X111071681Y-110097027D01*
X111101700Y-109984993D01*
X111101700Y-109939499D01*
X111121385Y-109872460D01*
X111174189Y-109826705D01*
X111225700Y-109815499D01*
X111564895Y-109815499D01*
X111564900Y-109815499D01*
X111614487Y-109808972D01*
X111723316Y-109758224D01*
X111808224Y-109673316D01*
X111858972Y-109564487D01*
X111865500Y-109514901D01*
X111865499Y-109086334D01*
X111885183Y-109019296D01*
X111901813Y-108998659D01*
X113571787Y-107328685D01*
X113633108Y-107295202D01*
X113702800Y-107300186D01*
X113747147Y-107328687D01*
X113826684Y-107408224D01*
X113935513Y-107458972D01*
X113985099Y-107465500D01*
X114614900Y-107465499D01*
X114664487Y-107458972D01*
X114773316Y-107408224D01*
X114858224Y-107323316D01*
X114908972Y-107214487D01*
X114915500Y-107164901D01*
X114915499Y-106685100D01*
X114908972Y-106635513D01*
X114858224Y-106526684D01*
X114773316Y-106441776D01*
X114664487Y-106391028D01*
X114664485Y-106391027D01*
X114664486Y-106391027D01*
X114614901Y-106384500D01*
X113985105Y-106384500D01*
X113969386Y-106386569D01*
X113935513Y-106391028D01*
X113935511Y-106391029D01*
X113935509Y-106391029D01*
X113826683Y-106441776D01*
X113741776Y-106526683D01*
X113713228Y-106587905D01*
X113667055Y-106640344D01*
X113600846Y-106659500D01*
X113547187Y-106659500D01*
X113449604Y-106699921D01*
X111601343Y-108548181D01*
X111540020Y-108581666D01*
X111513662Y-108584500D01*
X111085105Y-108584500D01*
X111069386Y-108586569D01*
X111035513Y-108591028D01*
X111035511Y-108591029D01*
X111035509Y-108591029D01*
X110926683Y-108641776D01*
X110841776Y-108726683D01*
X110791027Y-108835514D01*
X110784500Y-108885098D01*
X110784500Y-109362500D01*
X110764815Y-109429539D01*
X110712011Y-109475294D01*
X110660500Y-109486500D01*
X110603207Y-109486500D01*
X110491173Y-109516519D01*
X110491172Y-109516519D01*
X110491170Y-109516520D01*
X110491169Y-109516520D01*
X110401499Y-109568292D01*
X110333599Y-109584765D01*
X110267572Y-109561913D01*
X110224381Y-109506991D01*
X110215499Y-109460909D01*
X110215499Y-108885100D01*
X110208972Y-108835513D01*
X110158224Y-108726684D01*
X110073316Y-108641776D01*
X109964487Y-108591028D01*
X109964485Y-108591027D01*
X109964486Y-108591027D01*
X109914901Y-108584500D01*
X109435105Y-108584500D01*
X109419386Y-108586569D01*
X109385513Y-108591028D01*
X109385511Y-108591029D01*
X109385509Y-108591029D01*
X109276683Y-108641776D01*
X109191775Y-108726684D01*
X109186776Y-108737406D01*
X109140603Y-108789844D01*
X109073409Y-108808995D01*
X109012399Y-108792389D01*
X109007429Y-108789519D01*
X108932737Y-108769506D01*
X108895393Y-108759500D01*
X108779407Y-108759500D01*
X108667371Y-108789519D01*
X108566927Y-108847512D01*
X108566924Y-108847514D01*
X108484914Y-108929524D01*
X108484912Y-108929527D01*
X108426919Y-109029971D01*
X108411817Y-109086335D01*
X108396900Y-109142007D01*
X108396900Y-109257993D01*
X108402013Y-109277075D01*
X108426919Y-109370028D01*
X108448019Y-109406573D01*
X108484912Y-109470473D01*
X108566927Y-109552488D01*
X108667373Y-109610481D01*
X108779407Y-109640500D01*
X108779409Y-109640500D01*
X108895391Y-109640500D01*
X108895393Y-109640500D01*
X109007427Y-109610481D01*
X109012390Y-109607615D01*
X109080287Y-109591140D01*
X109146315Y-109613988D01*
X109186774Y-109662591D01*
X109191775Y-109673315D01*
X109191776Y-109673316D01*
X109276684Y-109758224D01*
X109347656Y-109791318D01*
X109400094Y-109837490D01*
X109419246Y-109904684D01*
X109399030Y-109971565D01*
X109345865Y-110016899D01*
X109295250Y-110027700D01*
X107439500Y-110027700D01*
X107372461Y-110008015D01*
X107326706Y-109955211D01*
X107315500Y-109903700D01*
X107315499Y-109485105D01*
X107315499Y-109485100D01*
X107308972Y-109435513D01*
X107258224Y-109326684D01*
X107173316Y-109241776D01*
X107064487Y-109191028D01*
X107064485Y-109191027D01*
X107064486Y-109191027D01*
X107014902Y-109184500D01*
X107014901Y-109184500D01*
X106586336Y-109184500D01*
X106556895Y-109175855D01*
X106526909Y-109169332D01*
X106521893Y-109165577D01*
X106519297Y-109164815D01*
X106498655Y-109148181D01*
X106458419Y-109107945D01*
X106424934Y-109046622D01*
X106422100Y-109020264D01*
X106422100Y-108948609D01*
X106422100Y-108948607D01*
X106392081Y-108836573D01*
X106376159Y-108808995D01*
X106371832Y-108801500D01*
X106355358Y-108733600D01*
X106378210Y-108667573D01*
X106433131Y-108624382D01*
X106479213Y-108615499D01*
X107014900Y-108615499D01*
X107064487Y-108608972D01*
X107173316Y-108558224D01*
X107258224Y-108473316D01*
X107286772Y-108412095D01*
X107332945Y-108359656D01*
X107399154Y-108340500D01*
X108265311Y-108340500D01*
X108265312Y-108340500D01*
X108362894Y-108300080D01*
X110111155Y-106551819D01*
X110172478Y-106518334D01*
X110198836Y-106515500D01*
X110359959Y-106515500D01*
X110359960Y-106515499D01*
X110382326Y-106511050D01*
X110426458Y-106502273D01*
X110426459Y-106502272D01*
X110426461Y-106502272D01*
X110451600Y-106485474D01*
X110501877Y-106451881D01*
X110509188Y-106444570D01*
X110570510Y-106411083D01*
X110640202Y-106416065D01*
X110696137Y-106457934D01*
X110720556Y-106523398D01*
X110705706Y-106591671D01*
X110704259Y-106594248D01*
X110673820Y-106646969D01*
X110673820Y-106646970D01*
X110673819Y-106646972D01*
X110673819Y-106646973D01*
X110663603Y-106685100D01*
X110643800Y-106759007D01*
X110643800Y-106874992D01*
X110673819Y-106987028D01*
X110678204Y-106994622D01*
X110731812Y-107087473D01*
X110813827Y-107169488D01*
X110914273Y-107227481D01*
X111026307Y-107257500D01*
X111026309Y-107257500D01*
X111142291Y-107257500D01*
X111142293Y-107257500D01*
X111254327Y-107227481D01*
X111354773Y-107169488D01*
X111436788Y-107087473D01*
X111494781Y-106987027D01*
X111524800Y-106874993D01*
X111524800Y-106803335D01*
X111533444Y-106773894D01*
X111539968Y-106743908D01*
X111543722Y-106738892D01*
X111544485Y-106736296D01*
X111561119Y-106715654D01*
X111629804Y-106646969D01*
X111728796Y-106547977D01*
X111790117Y-106514494D01*
X111792222Y-106514055D01*
X111851461Y-106502272D01*
X111889170Y-106477075D01*
X111926878Y-106451880D01*
X111931763Y-106444570D01*
X111977272Y-106376461D01*
X111977272Y-106376457D01*
X111978620Y-106373205D01*
X111983471Y-106367183D01*
X111984058Y-106366306D01*
X111984136Y-106366358D01*
X112022457Y-106318798D01*
X112045735Y-106306086D01*
X112058785Y-106300680D01*
X112058786Y-106300680D01*
X112181509Y-106206510D01*
X112181510Y-106206509D01*
X112275680Y-106083786D01*
X112275683Y-106083780D01*
X112334878Y-105940868D01*
X112343551Y-105875000D01*
X111636500Y-105875000D01*
X111627814Y-105872449D01*
X111618853Y-105873738D01*
X111594812Y-105862759D01*
X111569461Y-105855315D01*
X111563533Y-105848474D01*
X111555297Y-105844713D01*
X111541007Y-105822478D01*
X111523706Y-105802511D01*
X111521418Y-105791996D01*
X111517523Y-105785935D01*
X111512500Y-105751000D01*
X111512500Y-105649000D01*
X111532185Y-105581961D01*
X111584989Y-105536206D01*
X111636500Y-105525000D01*
X112343549Y-105525000D01*
X112343550Y-105524998D01*
X112334881Y-105459140D01*
X112334877Y-105459128D01*
X112282192Y-105331932D01*
X112275682Y-105316217D01*
X112275680Y-105316213D01*
X112257566Y-105292607D01*
X112932100Y-105292607D01*
X112932100Y-105408593D01*
X112936725Y-105425855D01*
X112962119Y-105520628D01*
X112987441Y-105564485D01*
X113020112Y-105621073D01*
X113102127Y-105703088D01*
X113185112Y-105751000D01*
X113197624Y-105758224D01*
X113202573Y-105761081D01*
X113314607Y-105791100D01*
X113314609Y-105791100D01*
X113430591Y-105791100D01*
X113430593Y-105791100D01*
X113542627Y-105761081D01*
X113642122Y-105703636D01*
X113710021Y-105687164D01*
X113776048Y-105710016D01*
X113791803Y-105723343D01*
X113826684Y-105758224D01*
X113935513Y-105808972D01*
X113985099Y-105815500D01*
X114614900Y-105815499D01*
X114664487Y-105808972D01*
X114773316Y-105758224D01*
X114858224Y-105673316D01*
X114908972Y-105564487D01*
X114915500Y-105514901D01*
X114915499Y-105035100D01*
X114908972Y-104985513D01*
X114858224Y-104876684D01*
X114773316Y-104791776D01*
X114664487Y-104741028D01*
X114664485Y-104741027D01*
X114664486Y-104741027D01*
X114614901Y-104734500D01*
X113985105Y-104734500D01*
X113969386Y-104736569D01*
X113935513Y-104741028D01*
X113935511Y-104741029D01*
X113935509Y-104741029D01*
X113826683Y-104791776D01*
X113741775Y-104876684D01*
X113733416Y-104894611D01*
X113687243Y-104947049D01*
X113620049Y-104966200D01*
X113559037Y-104949592D01*
X113542632Y-104940121D01*
X113542629Y-104940120D01*
X113542628Y-104940119D01*
X113542627Y-104940119D01*
X113430593Y-104910100D01*
X113314607Y-104910100D01*
X113202571Y-104940119D01*
X113102127Y-104998112D01*
X113102124Y-104998114D01*
X113020114Y-105080124D01*
X113020112Y-105080127D01*
X112962119Y-105180571D01*
X112943248Y-105251000D01*
X112932100Y-105292607D01*
X112257566Y-105292607D01*
X112181510Y-105193490D01*
X112181509Y-105193489D01*
X112058786Y-105099319D01*
X112058780Y-105099316D01*
X112045733Y-105093912D01*
X111991329Y-105050071D01*
X111978621Y-105026797D01*
X111977270Y-105023535D01*
X111926878Y-104948119D01*
X111851462Y-104897728D01*
X111851458Y-104897726D01*
X111784962Y-104884500D01*
X111784958Y-104884500D01*
X111240042Y-104884500D01*
X111240037Y-104884500D01*
X111173541Y-104897726D01*
X111173537Y-104897728D01*
X111098119Y-104948121D01*
X111093009Y-104953231D01*
X111031685Y-104986714D01*
X110961993Y-104981727D01*
X110906061Y-104939854D01*
X110890770Y-104912999D01*
X110850683Y-104816219D01*
X110850680Y-104816213D01*
X110756510Y-104693490D01*
X110756509Y-104693489D01*
X110633786Y-104599319D01*
X110633780Y-104599316D01*
X110490871Y-104540122D01*
X110490866Y-104540120D01*
X110376012Y-104525000D01*
X110262500Y-104525000D01*
X110262500Y-105076000D01*
X110259949Y-105084685D01*
X110261238Y-105093647D01*
X110250259Y-105117687D01*
X110242815Y-105143039D01*
X110235974Y-105148966D01*
X110232213Y-105157203D01*
X110209978Y-105171492D01*
X110190011Y-105188794D01*
X110179496Y-105191081D01*
X110173435Y-105194977D01*
X110138500Y-105200000D01*
X110087500Y-105200000D01*
X110087500Y-105251000D01*
X110067815Y-105318039D01*
X110015011Y-105363794D01*
X109963500Y-105375000D01*
X109256451Y-105375000D01*
X109241315Y-105392259D01*
X109182313Y-105429683D01*
X109148087Y-105434500D01*
X108086336Y-105434500D01*
X108056895Y-105425855D01*
X108026909Y-105419332D01*
X108021893Y-105415577D01*
X108019297Y-105414815D01*
X107998655Y-105398181D01*
X107951819Y-105351345D01*
X107918334Y-105290022D01*
X107915500Y-105263664D01*
X107915500Y-105024999D01*
X109256448Y-105024999D01*
X109256449Y-105025000D01*
X109912500Y-105025000D01*
X109912500Y-104525000D01*
X109798986Y-104525000D01*
X109684140Y-104540118D01*
X109684128Y-104540122D01*
X109541219Y-104599316D01*
X109541213Y-104599319D01*
X109418490Y-104693489D01*
X109418489Y-104693490D01*
X109324319Y-104816213D01*
X109324316Y-104816219D01*
X109265121Y-104959131D01*
X109256448Y-105024999D01*
X107915500Y-105024999D01*
X107915500Y-104815317D01*
X107915500Y-104815312D01*
X107905149Y-104744268D01*
X107851575Y-104634680D01*
X107851573Y-104634678D01*
X107851573Y-104634677D01*
X107826821Y-104609925D01*
X107793336Y-104548602D01*
X107798320Y-104478910D01*
X107840192Y-104422977D01*
X107852502Y-104415607D01*
X107852337Y-104415339D01*
X108002728Y-104322575D01*
X108002732Y-104322572D01*
X108122572Y-104202732D01*
X108122575Y-104202728D01*
X108211542Y-104058492D01*
X108211547Y-104058481D01*
X108264855Y-103897606D01*
X108274999Y-103798322D01*
X108275000Y-103798309D01*
X108275000Y-103775000D01*
X106325001Y-103775000D01*
X106325001Y-103798322D01*
X106335144Y-103897607D01*
X106388452Y-104058481D01*
X106388457Y-104058492D01*
X106477424Y-104202728D01*
X106477427Y-104202732D01*
X106597267Y-104322572D01*
X106597271Y-104322575D01*
X106747663Y-104415339D01*
X106746417Y-104417357D01*
X106790346Y-104456042D01*
X106809493Y-104523236D01*
X106791254Y-104586986D01*
X106783574Y-104599530D01*
X106748425Y-104634680D01*
X106694851Y-104744268D01*
X106694813Y-104744523D01*
X106691313Y-104750242D01*
X106669592Y-104769911D01*
X106649829Y-104791543D01*
X106643863Y-104793209D01*
X106639522Y-104797141D01*
X106615508Y-104801131D01*
X106585556Y-104809500D01*
X106575224Y-104809500D01*
X106571583Y-104808431D01*
X106570598Y-104808595D01*
X106567285Y-104807169D01*
X106508185Y-104789815D01*
X106487544Y-104773182D01*
X106436876Y-104722515D01*
X106436873Y-104722512D01*
X106372559Y-104685380D01*
X106336428Y-104664519D01*
X106280410Y-104649509D01*
X106224393Y-104634500D01*
X106108407Y-104634500D01*
X105996371Y-104664519D01*
X105895927Y-104722512D01*
X105895923Y-104722515D01*
X105845256Y-104773182D01*
X105818329Y-104787884D01*
X105792511Y-104804477D01*
X105786308Y-104805368D01*
X105783933Y-104806666D01*
X105757576Y-104809500D01*
X105645836Y-104809500D01*
X105578797Y-104789815D01*
X105558155Y-104773181D01*
X104384974Y-103600000D01*
X118348372Y-103600000D01*
X118349382Y-103620566D01*
X118349407Y-103621202D01*
X118349500Y-103626012D01*
X118349500Y-103706287D01*
X118349499Y-103706287D01*
X118372947Y-103854329D01*
X118373062Y-103855060D01*
X118374343Y-103863690D01*
X118374579Y-103864636D01*
X118375149Y-103868231D01*
X118382753Y-103916238D01*
X118382755Y-103916248D01*
X118397921Y-103962923D01*
X118403503Y-103980103D01*
X118406573Y-103992357D01*
X118416483Y-104020057D01*
X118417060Y-104021832D01*
X118448442Y-104118412D01*
X118488911Y-104197837D01*
X118495362Y-104210497D01*
X118507970Y-104237153D01*
X118514466Y-104247990D01*
X118516400Y-104251786D01*
X118516403Y-104251791D01*
X118544949Y-104307816D01*
X118575659Y-104350085D01*
X118576162Y-104350924D01*
X118581393Y-104357977D01*
X118669896Y-104479792D01*
X118728826Y-104538722D01*
X118744255Y-104555745D01*
X118761277Y-104571173D01*
X118820211Y-104630107D01*
X118941583Y-104718288D01*
X118941584Y-104718288D01*
X118942022Y-104718606D01*
X118949076Y-104723838D01*
X118949914Y-104724340D01*
X118952883Y-104726497D01*
X118952885Y-104726499D01*
X118992171Y-104755042D01*
X118992176Y-104755045D01*
X118992184Y-104755051D01*
X118992187Y-104755052D01*
X118992191Y-104755055D01*
X119048198Y-104783591D01*
X119052002Y-104785529D01*
X119062847Y-104792030D01*
X119089502Y-104804637D01*
X119181588Y-104851557D01*
X119279901Y-104883501D01*
X119307643Y-104893427D01*
X119319892Y-104896495D01*
X119323936Y-104897809D01*
X119323948Y-104897812D01*
X119383757Y-104917246D01*
X119435361Y-104925419D01*
X119436310Y-104925657D01*
X119445005Y-104926946D01*
X119593713Y-104950500D01*
X119677037Y-104950500D01*
X119700000Y-104951628D01*
X119722963Y-104950500D01*
X119806287Y-104950500D01*
X119954346Y-104927048D01*
X119954351Y-104927048D01*
X119955008Y-104926943D01*
X119963690Y-104925657D01*
X119964638Y-104925419D01*
X119968256Y-104924846D01*
X119968258Y-104924846D01*
X119979045Y-104923137D01*
X120016243Y-104917246D01*
X120080103Y-104896496D01*
X120092357Y-104893427D01*
X120120098Y-104883501D01*
X120218412Y-104851557D01*
X120310497Y-104804637D01*
X120337153Y-104792030D01*
X120347997Y-104785529D01*
X120407816Y-104755051D01*
X120450085Y-104724340D01*
X120450924Y-104723838D01*
X120457977Y-104718606D01*
X120579792Y-104630104D01*
X120638722Y-104571173D01*
X120655745Y-104555745D01*
X120671173Y-104538722D01*
X120730104Y-104479792D01*
X120818606Y-104357977D01*
X120823838Y-104350924D01*
X120824340Y-104350085D01*
X120855051Y-104307816D01*
X120885529Y-104247997D01*
X120892030Y-104237153D01*
X120904637Y-104210497D01*
X120951557Y-104118412D01*
X120983501Y-104020098D01*
X120993427Y-103992357D01*
X120996496Y-103980103D01*
X121017246Y-103916243D01*
X121025419Y-103864638D01*
X121025657Y-103863690D01*
X121026946Y-103854994D01*
X121050500Y-103706287D01*
X121050500Y-103622962D01*
X121051628Y-103600000D01*
X121050500Y-103577037D01*
X121050500Y-103493713D01*
X121026946Y-103345005D01*
X121025657Y-103336310D01*
X121025419Y-103335361D01*
X121017246Y-103283757D01*
X120996496Y-103219896D01*
X120993427Y-103207643D01*
X120983501Y-103179901D01*
X120951557Y-103081588D01*
X120948159Y-103074920D01*
X120943647Y-103066064D01*
X120904637Y-102989502D01*
X120892030Y-102962847D01*
X120885529Y-102952002D01*
X120866931Y-102915500D01*
X120855055Y-102892191D01*
X120855052Y-102892187D01*
X120855051Y-102892184D01*
X120833173Y-102862072D01*
X120826499Y-102852885D01*
X120826496Y-102852882D01*
X120826474Y-102852852D01*
X120824340Y-102849914D01*
X120823838Y-102849076D01*
X120818606Y-102842022D01*
X120818288Y-102841584D01*
X120818287Y-102841582D01*
X120730107Y-102720211D01*
X120671173Y-102661277D01*
X120655745Y-102644255D01*
X120638722Y-102628826D01*
X120579792Y-102569896D01*
X120457977Y-102481393D01*
X120450924Y-102476162D01*
X120450085Y-102475659D01*
X120407816Y-102444949D01*
X120351783Y-102416399D01*
X120347993Y-102414467D01*
X120337153Y-102407970D01*
X120310512Y-102395369D01*
X120308881Y-102394538D01*
X120308868Y-102394532D01*
X120265606Y-102372489D01*
X120218412Y-102348442D01*
X120121837Y-102317061D01*
X120121837Y-102317062D01*
X120120068Y-102316487D01*
X120092357Y-102306573D01*
X120080103Y-102303503D01*
X120076048Y-102302185D01*
X120076047Y-102302185D01*
X120062923Y-102297921D01*
X120016248Y-102282755D01*
X120016238Y-102282753D01*
X119968231Y-102275149D01*
X119964636Y-102274579D01*
X119963690Y-102274343D01*
X119955060Y-102273062D01*
X119954329Y-102272947D01*
X119954327Y-102272946D01*
X119806287Y-102249500D01*
X119722963Y-102249500D01*
X119700000Y-102248372D01*
X119677037Y-102249500D01*
X119593713Y-102249500D01*
X119593708Y-102249500D01*
X119445601Y-102272958D01*
X119445596Y-102272959D01*
X119444959Y-102273059D01*
X119436310Y-102274343D01*
X119435370Y-102274577D01*
X119431786Y-102275145D01*
X119431773Y-102275148D01*
X119383758Y-102282753D01*
X119383746Y-102282756D01*
X119323950Y-102302185D01*
X119319883Y-102303506D01*
X119307643Y-102306573D01*
X119279959Y-102316476D01*
X119278196Y-102317050D01*
X119278178Y-102317057D01*
X119181592Y-102348441D01*
X119181584Y-102348444D01*
X119091142Y-102394524D01*
X119091143Y-102394525D01*
X119089479Y-102395372D01*
X119062847Y-102407970D01*
X119052009Y-102414465D01*
X119048215Y-102416399D01*
X119048213Y-102416399D01*
X118992190Y-102444945D01*
X118992187Y-102444947D01*
X118952852Y-102473524D01*
X118952851Y-102473523D01*
X118949900Y-102475667D01*
X118949076Y-102476162D01*
X118942074Y-102481353D01*
X118941509Y-102481765D01*
X118941506Y-102481767D01*
X118820211Y-102569892D01*
X118763435Y-102626668D01*
X118763434Y-102626667D01*
X118761255Y-102628845D01*
X118744255Y-102644255D01*
X118728845Y-102661255D01*
X118726687Y-102663414D01*
X118726668Y-102663435D01*
X118669892Y-102720211D01*
X118581767Y-102841506D01*
X118581765Y-102841509D01*
X118581355Y-102842072D01*
X118576162Y-102849076D01*
X118575664Y-102849904D01*
X118573539Y-102852830D01*
X118573524Y-102852852D01*
X118566826Y-102862072D01*
X118544959Y-102892171D01*
X118544947Y-102892187D01*
X118544945Y-102892190D01*
X118516399Y-102948214D01*
X118516399Y-102948215D01*
X118514465Y-102952009D01*
X118507970Y-102962847D01*
X118495373Y-102989478D01*
X118494527Y-102991139D01*
X118448444Y-103081584D01*
X118448441Y-103081592D01*
X118417057Y-103178178D01*
X118416488Y-103179926D01*
X118406573Y-103207643D01*
X118403506Y-103219881D01*
X118402186Y-103223946D01*
X118402185Y-103223950D01*
X118382756Y-103283746D01*
X118382753Y-103283758D01*
X118375150Y-103331760D01*
X118374580Y-103335361D01*
X118374343Y-103336310D01*
X118373062Y-103344943D01*
X118372961Y-103345582D01*
X118372958Y-103345601D01*
X118349500Y-103493707D01*
X118349500Y-103573987D01*
X118349351Y-103580069D01*
X118348372Y-103600000D01*
X104384974Y-103600000D01*
X104036651Y-103251677D01*
X106325000Y-103251677D01*
X106325000Y-103275000D01*
X107050000Y-103275000D01*
X107550000Y-103275000D01*
X108274999Y-103275000D01*
X108274999Y-103251692D01*
X108274998Y-103251677D01*
X108264855Y-103152392D01*
X108211547Y-102991518D01*
X108211542Y-102991507D01*
X108122575Y-102847271D01*
X108122572Y-102847267D01*
X108002732Y-102727427D01*
X108002728Y-102727424D01*
X107858492Y-102638457D01*
X107858481Y-102638452D01*
X107791762Y-102616344D01*
X107754969Y-102604152D01*
X111575001Y-102604152D01*
X111585056Y-102702583D01*
X111637906Y-102862072D01*
X111637908Y-102862077D01*
X111726114Y-103005080D01*
X111844919Y-103123885D01*
X111987922Y-103212091D01*
X111987927Y-103212093D01*
X112147416Y-103264942D01*
X112245856Y-103274999D01*
X112262500Y-103274998D01*
X112262500Y-102550000D01*
X111575001Y-102550000D01*
X111575001Y-102604152D01*
X107754969Y-102604152D01*
X107697606Y-102585144D01*
X107598322Y-102575000D01*
X107550000Y-102575000D01*
X107550000Y-103275000D01*
X107050000Y-103275000D01*
X107050000Y-102575000D01*
X107049999Y-102574999D01*
X107001693Y-102575000D01*
X107001675Y-102575001D01*
X106902392Y-102585144D01*
X106741518Y-102638452D01*
X106741507Y-102638457D01*
X106597271Y-102727424D01*
X106597267Y-102727427D01*
X106477427Y-102847267D01*
X106477424Y-102847271D01*
X106388457Y-102991507D01*
X106388452Y-102991518D01*
X106335144Y-103152393D01*
X106325000Y-103251677D01*
X104036651Y-103251677D01*
X103859895Y-103074921D01*
X103859894Y-103074920D01*
X103762312Y-103034500D01*
X103714499Y-103034500D01*
X103647460Y-103014815D01*
X103601705Y-102962011D01*
X103590499Y-102910500D01*
X103590499Y-102436163D01*
X103590499Y-102436160D01*
X103582349Y-102395179D01*
X103551295Y-102348705D01*
X103504821Y-102317651D01*
X103463841Y-102309500D01*
X103463839Y-102309500D01*
X101736163Y-102309500D01*
X101695179Y-102317651D01*
X101649096Y-102348444D01*
X101648705Y-102348705D01*
X101638401Y-102364124D01*
X101617651Y-102395178D01*
X101615107Y-102407970D01*
X101611919Y-102424000D01*
X101609500Y-102436160D01*
X101609500Y-104163836D01*
X101609501Y-104163839D01*
X101609501Y-104163840D01*
X101617651Y-104204821D01*
X101648705Y-104251295D01*
X101695179Y-104282349D01*
X101736159Y-104290500D01*
X102217275Y-104290499D01*
X102284312Y-104310183D01*
X102330067Y-104362987D01*
X102340011Y-104432146D01*
X102310986Y-104495702D01*
X102255592Y-104532430D01*
X102081781Y-104588905D01*
X101892439Y-104685380D01*
X101838282Y-104724727D01*
X101838282Y-104724728D01*
X102470591Y-105357037D01*
X102407007Y-105374075D01*
X102292993Y-105439901D01*
X102199901Y-105532993D01*
X102134075Y-105647007D01*
X102117037Y-105710591D01*
X101484728Y-105078282D01*
X101484727Y-105078282D01*
X101445380Y-105132439D01*
X101348904Y-105321782D01*
X101283242Y-105523869D01*
X101283242Y-105523872D01*
X101250000Y-105733753D01*
X100300500Y-105733753D01*
X100300500Y-101806092D01*
X100301097Y-101793938D01*
X100301260Y-101792280D01*
X100312744Y-101675678D01*
X100317483Y-101651856D01*
X100350203Y-101543990D01*
X100359499Y-101521549D01*
X100412632Y-101422143D01*
X100426134Y-101401938D01*
X100497634Y-101314815D01*
X100514815Y-101297634D01*
X100601939Y-101226132D01*
X100622143Y-101212632D01*
X100721549Y-101159499D01*
X100743990Y-101150203D01*
X100851856Y-101117483D01*
X100875682Y-101112744D01*
X100975730Y-101102890D01*
X100993940Y-101101097D01*
X101006093Y-101100500D01*
X101047594Y-101100500D01*
X112086838Y-101100500D01*
X112153877Y-101120185D01*
G37*
%TD.AperFunction*%
%TD*%
M02*
