%TF.GenerationSoftware,KiCad,Pcbnew,9.0.9-9.0.9~ubuntu24.04.1*%
%TF.CreationDate,2026-09-23T21:04:59+00:00*%
%TF.ProjectId,temperature-sensor,74656d70-6572-4617-9475-72652d73656e,rev?*%
%TF.SameCoordinates,Original*%
%TF.FileFunction,Drillmap*%
%TF.FilePolarity,Positive*%
%FSLAX45Y45*%
G04 Gerber Fmt 4.5, Leading zero omitted, Abs format (unit mm)*
G04 Created by KiCad (PCBNEW 9.0.9-9.0.9~ubuntu24.04.1) date 2026-09-23 21:04:59*
%MOMM*%
%LPD*%
G01*
G04 APERTURE LIST*
%ADD10C,0.100000*%
%ADD11C,0.200000*%
G04 APERTURE END LIST*
D10*
X0Y0D02*
X2000000Y0D01*
X2000000Y-1500000D01*
X0Y-1500000D01*
X0Y0D01*
D11*
D10*
X401250Y-635000D02*
X431250Y-665000D01*
X431250Y-635000D02*
X401250Y-665000D01*
X662500Y-435000D02*
X692500Y-465000D01*
X692500Y-435000D02*
X662500Y-465000D01*
X868750Y-635000D02*
X898750Y-665000D01*
X898750Y-635000D02*
X868750Y-665000D01*
X956250Y-735000D02*
X986250Y-765000D01*
X986250Y-735000D02*
X956250Y-765000D01*
X279500Y-369000D02*
G75*
G02*
X179500Y-369000I-50000J0D01*
G01*
X179500Y-369000D02*
G75*
G02*
X279500Y-369000I50000J0D01*
G01*
X279500Y-623000D02*
G75*
G02*
X179500Y-623000I-50000J0D01*
G01*
X179500Y-623000D02*
G75*
G02*
X279500Y-623000I50000J0D01*
G01*
X279500Y-877000D02*
G75*
G02*
X179500Y-877000I-50000J0D01*
G01*
X179500Y-877000D02*
G75*
G02*
X279500Y-877000I50000J0D01*
G01*
X279500Y-1131000D02*
G75*
G02*
X179500Y-1131000I-50000J0D01*
G01*
X179500Y-1131000D02*
G75*
G02*
X279500Y-1131000I50000J0D01*
G01*
D11*
X255777Y-1816484D02*
X255777Y-1616484D01*
X255777Y-1616484D02*
X303396Y-1616484D01*
X303396Y-1616484D02*
X331967Y-1626008D01*
X331967Y-1626008D02*
X351015Y-1645055D01*
X351015Y-1645055D02*
X360539Y-1664103D01*
X360539Y-1664103D02*
X370062Y-1702198D01*
X370062Y-1702198D02*
X370062Y-1730769D01*
X370062Y-1730769D02*
X360539Y-1768865D01*
X360539Y-1768865D02*
X351015Y-1787912D01*
X351015Y-1787912D02*
X331967Y-1806960D01*
X331967Y-1806960D02*
X303396Y-1816484D01*
X303396Y-1816484D02*
X255777Y-1816484D01*
X455777Y-1816484D02*
X455777Y-1683150D01*
X455777Y-1721246D02*
X465301Y-1702198D01*
X465301Y-1702198D02*
X474824Y-1692674D01*
X474824Y-1692674D02*
X493872Y-1683150D01*
X493872Y-1683150D02*
X512920Y-1683150D01*
X579586Y-1816484D02*
X579586Y-1683150D01*
X579586Y-1616484D02*
X570063Y-1626008D01*
X570063Y-1626008D02*
X579586Y-1635531D01*
X579586Y-1635531D02*
X589110Y-1626008D01*
X589110Y-1626008D02*
X579586Y-1616484D01*
X579586Y-1616484D02*
X579586Y-1635531D01*
X703396Y-1816484D02*
X684348Y-1806960D01*
X684348Y-1806960D02*
X674824Y-1787912D01*
X674824Y-1787912D02*
X674824Y-1616484D01*
X808158Y-1816484D02*
X789110Y-1806960D01*
X789110Y-1806960D02*
X779586Y-1787912D01*
X779586Y-1787912D02*
X779586Y-1616484D01*
X1036729Y-1816484D02*
X1036729Y-1616484D01*
X1036729Y-1616484D02*
X1103396Y-1759341D01*
X1103396Y-1759341D02*
X1170063Y-1616484D01*
X1170063Y-1616484D02*
X1170063Y-1816484D01*
X1351015Y-1816484D02*
X1351015Y-1711722D01*
X1351015Y-1711722D02*
X1341491Y-1692674D01*
X1341491Y-1692674D02*
X1322444Y-1683150D01*
X1322444Y-1683150D02*
X1284348Y-1683150D01*
X1284348Y-1683150D02*
X1265301Y-1692674D01*
X1351015Y-1806960D02*
X1331967Y-1816484D01*
X1331967Y-1816484D02*
X1284348Y-1816484D01*
X1284348Y-1816484D02*
X1265301Y-1806960D01*
X1265301Y-1806960D02*
X1255777Y-1787912D01*
X1255777Y-1787912D02*
X1255777Y-1768865D01*
X1255777Y-1768865D02*
X1265301Y-1749817D01*
X1265301Y-1749817D02*
X1284348Y-1740293D01*
X1284348Y-1740293D02*
X1331967Y-1740293D01*
X1331967Y-1740293D02*
X1351015Y-1730769D01*
X1446253Y-1683150D02*
X1446253Y-1883150D01*
X1446253Y-1692674D02*
X1465301Y-1683150D01*
X1465301Y-1683150D02*
X1503396Y-1683150D01*
X1503396Y-1683150D02*
X1522443Y-1692674D01*
X1522443Y-1692674D02*
X1531967Y-1702198D01*
X1531967Y-1702198D02*
X1541491Y-1721246D01*
X1541491Y-1721246D02*
X1541491Y-1778388D01*
X1541491Y-1778388D02*
X1531967Y-1797436D01*
X1531967Y-1797436D02*
X1522443Y-1806960D01*
X1522443Y-1806960D02*
X1503396Y-1816484D01*
X1503396Y-1816484D02*
X1465301Y-1816484D01*
X1465301Y-1816484D02*
X1446253Y-1806960D01*
X1627205Y-1797436D02*
X1636729Y-1806960D01*
X1636729Y-1806960D02*
X1627205Y-1816484D01*
X1627205Y-1816484D02*
X1617682Y-1806960D01*
X1617682Y-1806960D02*
X1627205Y-1797436D01*
X1627205Y-1797436D02*
X1627205Y-1816484D01*
X1627205Y-1692674D02*
X1636729Y-1702198D01*
X1636729Y-1702198D02*
X1627205Y-1711722D01*
X1627205Y-1711722D02*
X1617682Y-1702198D01*
X1617682Y-1702198D02*
X1627205Y-1692674D01*
X1627205Y-1692674D02*
X1627205Y-1711722D01*
D10*
X-35000Y-2130000D02*
X-5000Y-2160000D01*
X-5000Y-2130000D02*
X-35000Y-2160000D01*
D11*
X293872Y-2036484D02*
X312920Y-2036484D01*
X312920Y-2036484D02*
X331967Y-2046008D01*
X331967Y-2046008D02*
X341491Y-2055531D01*
X341491Y-2055531D02*
X351015Y-2074579D01*
X351015Y-2074579D02*
X360539Y-2112674D01*
X360539Y-2112674D02*
X360539Y-2160293D01*
X360539Y-2160293D02*
X351015Y-2198389D01*
X351015Y-2198389D02*
X341491Y-2217436D01*
X341491Y-2217436D02*
X331967Y-2226960D01*
X331967Y-2226960D02*
X312920Y-2236484D01*
X312920Y-2236484D02*
X293872Y-2236484D01*
X293872Y-2236484D02*
X274824Y-2226960D01*
X274824Y-2226960D02*
X265301Y-2217436D01*
X265301Y-2217436D02*
X255777Y-2198389D01*
X255777Y-2198389D02*
X246253Y-2160293D01*
X246253Y-2160293D02*
X246253Y-2112674D01*
X246253Y-2112674D02*
X255777Y-2074579D01*
X255777Y-2074579D02*
X265301Y-2055531D01*
X265301Y-2055531D02*
X274824Y-2046008D01*
X274824Y-2046008D02*
X293872Y-2036484D01*
X446253Y-2217436D02*
X455777Y-2226960D01*
X455777Y-2226960D02*
X446253Y-2236484D01*
X446253Y-2236484D02*
X436729Y-2226960D01*
X436729Y-2226960D02*
X446253Y-2217436D01*
X446253Y-2217436D02*
X446253Y-2236484D01*
X522443Y-2036484D02*
X646253Y-2036484D01*
X646253Y-2036484D02*
X579586Y-2112674D01*
X579586Y-2112674D02*
X608158Y-2112674D01*
X608158Y-2112674D02*
X627205Y-2122198D01*
X627205Y-2122198D02*
X636729Y-2131722D01*
X636729Y-2131722D02*
X646253Y-2150770D01*
X646253Y-2150770D02*
X646253Y-2198389D01*
X646253Y-2198389D02*
X636729Y-2217436D01*
X636729Y-2217436D02*
X627205Y-2226960D01*
X627205Y-2226960D02*
X608158Y-2236484D01*
X608158Y-2236484D02*
X551015Y-2236484D01*
X551015Y-2236484D02*
X531967Y-2226960D01*
X531967Y-2226960D02*
X522443Y-2217436D01*
X770062Y-2036484D02*
X789110Y-2036484D01*
X789110Y-2036484D02*
X808158Y-2046008D01*
X808158Y-2046008D02*
X817682Y-2055531D01*
X817682Y-2055531D02*
X827205Y-2074579D01*
X827205Y-2074579D02*
X836729Y-2112674D01*
X836729Y-2112674D02*
X836729Y-2160293D01*
X836729Y-2160293D02*
X827205Y-2198389D01*
X827205Y-2198389D02*
X817682Y-2217436D01*
X817682Y-2217436D02*
X808158Y-2226960D01*
X808158Y-2226960D02*
X789110Y-2236484D01*
X789110Y-2236484D02*
X770062Y-2236484D01*
X770062Y-2236484D02*
X751015Y-2226960D01*
X751015Y-2226960D02*
X741491Y-2217436D01*
X741491Y-2217436D02*
X731967Y-2198389D01*
X731967Y-2198389D02*
X722443Y-2160293D01*
X722443Y-2160293D02*
X722443Y-2112674D01*
X722443Y-2112674D02*
X731967Y-2074579D01*
X731967Y-2074579D02*
X741491Y-2055531D01*
X741491Y-2055531D02*
X751015Y-2046008D01*
X751015Y-2046008D02*
X770062Y-2036484D01*
X960539Y-2036484D02*
X979586Y-2036484D01*
X979586Y-2036484D02*
X998634Y-2046008D01*
X998634Y-2046008D02*
X1008158Y-2055531D01*
X1008158Y-2055531D02*
X1017682Y-2074579D01*
X1017682Y-2074579D02*
X1027205Y-2112674D01*
X1027205Y-2112674D02*
X1027205Y-2160293D01*
X1027205Y-2160293D02*
X1017682Y-2198389D01*
X1017682Y-2198389D02*
X1008158Y-2217436D01*
X1008158Y-2217436D02*
X998634Y-2226960D01*
X998634Y-2226960D02*
X979586Y-2236484D01*
X979586Y-2236484D02*
X960539Y-2236484D01*
X960539Y-2236484D02*
X941491Y-2226960D01*
X941491Y-2226960D02*
X931967Y-2217436D01*
X931967Y-2217436D02*
X922443Y-2198389D01*
X922443Y-2198389D02*
X912920Y-2160293D01*
X912920Y-2160293D02*
X912920Y-2112674D01*
X912920Y-2112674D02*
X922443Y-2074579D01*
X922443Y-2074579D02*
X931967Y-2055531D01*
X931967Y-2055531D02*
X941491Y-2046008D01*
X941491Y-2046008D02*
X960539Y-2036484D01*
X1112920Y-2236484D02*
X1112920Y-2103150D01*
X1112920Y-2122198D02*
X1122444Y-2112674D01*
X1122444Y-2112674D02*
X1141491Y-2103150D01*
X1141491Y-2103150D02*
X1170063Y-2103150D01*
X1170063Y-2103150D02*
X1189110Y-2112674D01*
X1189110Y-2112674D02*
X1198634Y-2131722D01*
X1198634Y-2131722D02*
X1198634Y-2236484D01*
X1198634Y-2131722D02*
X1208158Y-2112674D01*
X1208158Y-2112674D02*
X1227205Y-2103150D01*
X1227205Y-2103150D02*
X1255777Y-2103150D01*
X1255777Y-2103150D02*
X1274825Y-2112674D01*
X1274825Y-2112674D02*
X1284348Y-2131722D01*
X1284348Y-2131722D02*
X1284348Y-2236484D01*
X1379586Y-2236484D02*
X1379586Y-2103150D01*
X1379586Y-2122198D02*
X1389110Y-2112674D01*
X1389110Y-2112674D02*
X1408158Y-2103150D01*
X1408158Y-2103150D02*
X1436729Y-2103150D01*
X1436729Y-2103150D02*
X1455777Y-2112674D01*
X1455777Y-2112674D02*
X1465301Y-2131722D01*
X1465301Y-2131722D02*
X1465301Y-2236484D01*
X1465301Y-2131722D02*
X1474824Y-2112674D01*
X1474824Y-2112674D02*
X1493872Y-2103150D01*
X1493872Y-2103150D02*
X1522443Y-2103150D01*
X1522443Y-2103150D02*
X1541491Y-2112674D01*
X1541491Y-2112674D02*
X1551015Y-2131722D01*
X1551015Y-2131722D02*
X1551015Y-2236484D01*
X1941491Y-2026960D02*
X1770063Y-2284103D01*
X2198634Y-2036484D02*
X2217682Y-2036484D01*
X2217682Y-2036484D02*
X2236729Y-2046008D01*
X2236729Y-2046008D02*
X2246253Y-2055531D01*
X2246253Y-2055531D02*
X2255777Y-2074579D01*
X2255777Y-2074579D02*
X2265301Y-2112674D01*
X2265301Y-2112674D02*
X2265301Y-2160293D01*
X2265301Y-2160293D02*
X2255777Y-2198389D01*
X2255777Y-2198389D02*
X2246253Y-2217436D01*
X2246253Y-2217436D02*
X2236729Y-2226960D01*
X2236729Y-2226960D02*
X2217682Y-2236484D01*
X2217682Y-2236484D02*
X2198634Y-2236484D01*
X2198634Y-2236484D02*
X2179587Y-2226960D01*
X2179587Y-2226960D02*
X2170063Y-2217436D01*
X2170063Y-2217436D02*
X2160539Y-2198389D01*
X2160539Y-2198389D02*
X2151015Y-2160293D01*
X2151015Y-2160293D02*
X2151015Y-2112674D01*
X2151015Y-2112674D02*
X2160539Y-2074579D01*
X2160539Y-2074579D02*
X2170063Y-2055531D01*
X2170063Y-2055531D02*
X2179587Y-2046008D01*
X2179587Y-2046008D02*
X2198634Y-2036484D01*
X2351015Y-2217436D02*
X2360539Y-2226960D01*
X2360539Y-2226960D02*
X2351015Y-2236484D01*
X2351015Y-2236484D02*
X2341491Y-2226960D01*
X2341491Y-2226960D02*
X2351015Y-2217436D01*
X2351015Y-2217436D02*
X2351015Y-2236484D01*
X2484348Y-2036484D02*
X2503396Y-2036484D01*
X2503396Y-2036484D02*
X2522444Y-2046008D01*
X2522444Y-2046008D02*
X2531968Y-2055531D01*
X2531968Y-2055531D02*
X2541491Y-2074579D01*
X2541491Y-2074579D02*
X2551015Y-2112674D01*
X2551015Y-2112674D02*
X2551015Y-2160293D01*
X2551015Y-2160293D02*
X2541491Y-2198389D01*
X2541491Y-2198389D02*
X2531968Y-2217436D01*
X2531968Y-2217436D02*
X2522444Y-2226960D01*
X2522444Y-2226960D02*
X2503396Y-2236484D01*
X2503396Y-2236484D02*
X2484348Y-2236484D01*
X2484348Y-2236484D02*
X2465301Y-2226960D01*
X2465301Y-2226960D02*
X2455777Y-2217436D01*
X2455777Y-2217436D02*
X2446253Y-2198389D01*
X2446253Y-2198389D02*
X2436729Y-2160293D01*
X2436729Y-2160293D02*
X2436729Y-2112674D01*
X2436729Y-2112674D02*
X2446253Y-2074579D01*
X2446253Y-2074579D02*
X2455777Y-2055531D01*
X2455777Y-2055531D02*
X2465301Y-2046008D01*
X2465301Y-2046008D02*
X2484348Y-2036484D01*
X2741491Y-2236484D02*
X2627206Y-2236484D01*
X2684348Y-2236484D02*
X2684348Y-2036484D01*
X2684348Y-2036484D02*
X2665301Y-2065055D01*
X2665301Y-2065055D02*
X2646253Y-2084103D01*
X2646253Y-2084103D02*
X2627206Y-2093627D01*
X2931967Y-2236484D02*
X2817682Y-2236484D01*
X2874825Y-2236484D02*
X2874825Y-2036484D01*
X2874825Y-2036484D02*
X2855777Y-2065055D01*
X2855777Y-2065055D02*
X2836729Y-2084103D01*
X2836729Y-2084103D02*
X2817682Y-2093627D01*
X3046253Y-2122198D02*
X3027206Y-2112674D01*
X3027206Y-2112674D02*
X3017682Y-2103150D01*
X3017682Y-2103150D02*
X3008158Y-2084103D01*
X3008158Y-2084103D02*
X3008158Y-2074579D01*
X3008158Y-2074579D02*
X3017682Y-2055531D01*
X3017682Y-2055531D02*
X3027206Y-2046008D01*
X3027206Y-2046008D02*
X3046253Y-2036484D01*
X3046253Y-2036484D02*
X3084348Y-2036484D01*
X3084348Y-2036484D02*
X3103396Y-2046008D01*
X3103396Y-2046008D02*
X3112920Y-2055531D01*
X3112920Y-2055531D02*
X3122444Y-2074579D01*
X3122444Y-2074579D02*
X3122444Y-2084103D01*
X3122444Y-2084103D02*
X3112920Y-2103150D01*
X3112920Y-2103150D02*
X3103396Y-2112674D01*
X3103396Y-2112674D02*
X3084348Y-2122198D01*
X3084348Y-2122198D02*
X3046253Y-2122198D01*
X3046253Y-2122198D02*
X3027206Y-2131722D01*
X3027206Y-2131722D02*
X3017682Y-2141246D01*
X3017682Y-2141246D02*
X3008158Y-2160293D01*
X3008158Y-2160293D02*
X3008158Y-2198389D01*
X3008158Y-2198389D02*
X3017682Y-2217436D01*
X3017682Y-2217436D02*
X3027206Y-2226960D01*
X3027206Y-2226960D02*
X3046253Y-2236484D01*
X3046253Y-2236484D02*
X3084348Y-2236484D01*
X3084348Y-2236484D02*
X3103396Y-2226960D01*
X3103396Y-2226960D02*
X3112920Y-2217436D01*
X3112920Y-2217436D02*
X3122444Y-2198389D01*
X3122444Y-2198389D02*
X3122444Y-2160293D01*
X3122444Y-2160293D02*
X3112920Y-2141246D01*
X3112920Y-2141246D02*
X3103396Y-2131722D01*
X3103396Y-2131722D02*
X3084348Y-2122198D01*
X3198634Y-2036484D02*
X3198634Y-2074579D01*
X3274825Y-2036484D02*
X3274825Y-2074579D01*
X3570063Y-2312674D02*
X3560539Y-2303150D01*
X3560539Y-2303150D02*
X3541491Y-2274579D01*
X3541491Y-2274579D02*
X3531968Y-2255531D01*
X3531968Y-2255531D02*
X3522444Y-2226960D01*
X3522444Y-2226960D02*
X3512920Y-2179341D01*
X3512920Y-2179341D02*
X3512920Y-2141246D01*
X3512920Y-2141246D02*
X3522444Y-2093627D01*
X3522444Y-2093627D02*
X3531968Y-2065055D01*
X3531968Y-2065055D02*
X3541491Y-2046008D01*
X3541491Y-2046008D02*
X3560539Y-2017436D01*
X3560539Y-2017436D02*
X3570063Y-2007912D01*
X3731968Y-2103150D02*
X3731968Y-2236484D01*
X3684348Y-2026960D02*
X3636729Y-2169817D01*
X3636729Y-2169817D02*
X3760539Y-2169817D01*
X3989110Y-2236484D02*
X3989110Y-2036484D01*
X4074825Y-2236484D02*
X4074825Y-2131722D01*
X4074825Y-2131722D02*
X4065301Y-2112674D01*
X4065301Y-2112674D02*
X4046253Y-2103150D01*
X4046253Y-2103150D02*
X4017682Y-2103150D01*
X4017682Y-2103150D02*
X3998634Y-2112674D01*
X3998634Y-2112674D02*
X3989110Y-2122198D01*
X4198634Y-2236484D02*
X4179587Y-2226960D01*
X4179587Y-2226960D02*
X4170063Y-2217436D01*
X4170063Y-2217436D02*
X4160539Y-2198389D01*
X4160539Y-2198389D02*
X4160539Y-2141246D01*
X4160539Y-2141246D02*
X4170063Y-2122198D01*
X4170063Y-2122198D02*
X4179587Y-2112674D01*
X4179587Y-2112674D02*
X4198634Y-2103150D01*
X4198634Y-2103150D02*
X4227206Y-2103150D01*
X4227206Y-2103150D02*
X4246253Y-2112674D01*
X4246253Y-2112674D02*
X4255777Y-2122198D01*
X4255777Y-2122198D02*
X4265301Y-2141246D01*
X4265301Y-2141246D02*
X4265301Y-2198389D01*
X4265301Y-2198389D02*
X4255777Y-2217436D01*
X4255777Y-2217436D02*
X4246253Y-2226960D01*
X4246253Y-2226960D02*
X4227206Y-2236484D01*
X4227206Y-2236484D02*
X4198634Y-2236484D01*
X4379587Y-2236484D02*
X4360539Y-2226960D01*
X4360539Y-2226960D02*
X4351015Y-2207912D01*
X4351015Y-2207912D02*
X4351015Y-2036484D01*
X4531968Y-2226960D02*
X4512920Y-2236484D01*
X4512920Y-2236484D02*
X4474825Y-2236484D01*
X4474825Y-2236484D02*
X4455777Y-2226960D01*
X4455777Y-2226960D02*
X4446253Y-2207912D01*
X4446253Y-2207912D02*
X4446253Y-2131722D01*
X4446253Y-2131722D02*
X4455777Y-2112674D01*
X4455777Y-2112674D02*
X4474825Y-2103150D01*
X4474825Y-2103150D02*
X4512920Y-2103150D01*
X4512920Y-2103150D02*
X4531968Y-2112674D01*
X4531968Y-2112674D02*
X4541492Y-2131722D01*
X4541492Y-2131722D02*
X4541492Y-2150770D01*
X4541492Y-2150770D02*
X4446253Y-2169817D01*
X4617682Y-2226960D02*
X4636730Y-2236484D01*
X4636730Y-2236484D02*
X4674825Y-2236484D01*
X4674825Y-2236484D02*
X4693873Y-2226960D01*
X4693873Y-2226960D02*
X4703396Y-2207912D01*
X4703396Y-2207912D02*
X4703396Y-2198389D01*
X4703396Y-2198389D02*
X4693873Y-2179341D01*
X4693873Y-2179341D02*
X4674825Y-2169817D01*
X4674825Y-2169817D02*
X4646253Y-2169817D01*
X4646253Y-2169817D02*
X4627206Y-2160293D01*
X4627206Y-2160293D02*
X4617682Y-2141246D01*
X4617682Y-2141246D02*
X4617682Y-2131722D01*
X4617682Y-2131722D02*
X4627206Y-2112674D01*
X4627206Y-2112674D02*
X4646253Y-2103150D01*
X4646253Y-2103150D02*
X4674825Y-2103150D01*
X4674825Y-2103150D02*
X4693873Y-2112674D01*
X4770063Y-2312674D02*
X4779587Y-2303150D01*
X4779587Y-2303150D02*
X4798634Y-2274579D01*
X4798634Y-2274579D02*
X4808158Y-2255531D01*
X4808158Y-2255531D02*
X4817682Y-2226960D01*
X4817682Y-2226960D02*
X4827206Y-2179341D01*
X4827206Y-2179341D02*
X4827206Y-2141246D01*
X4827206Y-2141246D02*
X4817682Y-2093627D01*
X4817682Y-2093627D02*
X4808158Y-2065055D01*
X4808158Y-2065055D02*
X4798634Y-2046008D01*
X4798634Y-2046008D02*
X4779587Y-2017436D01*
X4779587Y-2017436D02*
X4770063Y-2007912D01*
D10*
X-5000Y-2409000D02*
G75*
G02*
X-105000Y-2409000I-50000J0D01*
G01*
X-105000Y-2409000D02*
G75*
G02*
X-5000Y-2409000I50000J0D01*
G01*
D11*
X360539Y-2500484D02*
X246253Y-2500484D01*
X303396Y-2500484D02*
X303396Y-2300484D01*
X303396Y-2300484D02*
X284348Y-2329055D01*
X284348Y-2329055D02*
X265301Y-2348103D01*
X265301Y-2348103D02*
X246253Y-2357627D01*
X446253Y-2481436D02*
X455777Y-2490960D01*
X455777Y-2490960D02*
X446253Y-2500484D01*
X446253Y-2500484D02*
X436729Y-2490960D01*
X436729Y-2490960D02*
X446253Y-2481436D01*
X446253Y-2481436D02*
X446253Y-2500484D01*
X579586Y-2300484D02*
X598634Y-2300484D01*
X598634Y-2300484D02*
X617682Y-2310008D01*
X617682Y-2310008D02*
X627205Y-2319531D01*
X627205Y-2319531D02*
X636729Y-2338579D01*
X636729Y-2338579D02*
X646253Y-2376674D01*
X646253Y-2376674D02*
X646253Y-2424293D01*
X646253Y-2424293D02*
X636729Y-2462389D01*
X636729Y-2462389D02*
X627205Y-2481436D01*
X627205Y-2481436D02*
X617682Y-2490960D01*
X617682Y-2490960D02*
X598634Y-2500484D01*
X598634Y-2500484D02*
X579586Y-2500484D01*
X579586Y-2500484D02*
X560539Y-2490960D01*
X560539Y-2490960D02*
X551015Y-2481436D01*
X551015Y-2481436D02*
X541491Y-2462389D01*
X541491Y-2462389D02*
X531967Y-2424293D01*
X531967Y-2424293D02*
X531967Y-2376674D01*
X531967Y-2376674D02*
X541491Y-2338579D01*
X541491Y-2338579D02*
X551015Y-2319531D01*
X551015Y-2319531D02*
X560539Y-2310008D01*
X560539Y-2310008D02*
X579586Y-2300484D01*
X770062Y-2300484D02*
X789110Y-2300484D01*
X789110Y-2300484D02*
X808158Y-2310008D01*
X808158Y-2310008D02*
X817682Y-2319531D01*
X817682Y-2319531D02*
X827205Y-2338579D01*
X827205Y-2338579D02*
X836729Y-2376674D01*
X836729Y-2376674D02*
X836729Y-2424293D01*
X836729Y-2424293D02*
X827205Y-2462389D01*
X827205Y-2462389D02*
X817682Y-2481436D01*
X817682Y-2481436D02*
X808158Y-2490960D01*
X808158Y-2490960D02*
X789110Y-2500484D01*
X789110Y-2500484D02*
X770062Y-2500484D01*
X770062Y-2500484D02*
X751015Y-2490960D01*
X751015Y-2490960D02*
X741491Y-2481436D01*
X741491Y-2481436D02*
X731967Y-2462389D01*
X731967Y-2462389D02*
X722443Y-2424293D01*
X722443Y-2424293D02*
X722443Y-2376674D01*
X722443Y-2376674D02*
X731967Y-2338579D01*
X731967Y-2338579D02*
X741491Y-2319531D01*
X741491Y-2319531D02*
X751015Y-2310008D01*
X751015Y-2310008D02*
X770062Y-2300484D01*
X960539Y-2300484D02*
X979586Y-2300484D01*
X979586Y-2300484D02*
X998634Y-2310008D01*
X998634Y-2310008D02*
X1008158Y-2319531D01*
X1008158Y-2319531D02*
X1017682Y-2338579D01*
X1017682Y-2338579D02*
X1027205Y-2376674D01*
X1027205Y-2376674D02*
X1027205Y-2424293D01*
X1027205Y-2424293D02*
X1017682Y-2462389D01*
X1017682Y-2462389D02*
X1008158Y-2481436D01*
X1008158Y-2481436D02*
X998634Y-2490960D01*
X998634Y-2490960D02*
X979586Y-2500484D01*
X979586Y-2500484D02*
X960539Y-2500484D01*
X960539Y-2500484D02*
X941491Y-2490960D01*
X941491Y-2490960D02*
X931967Y-2481436D01*
X931967Y-2481436D02*
X922443Y-2462389D01*
X922443Y-2462389D02*
X912920Y-2424293D01*
X912920Y-2424293D02*
X912920Y-2376674D01*
X912920Y-2376674D02*
X922443Y-2338579D01*
X922443Y-2338579D02*
X931967Y-2319531D01*
X931967Y-2319531D02*
X941491Y-2310008D01*
X941491Y-2310008D02*
X960539Y-2300484D01*
X1112920Y-2500484D02*
X1112920Y-2367150D01*
X1112920Y-2386198D02*
X1122444Y-2376674D01*
X1122444Y-2376674D02*
X1141491Y-2367150D01*
X1141491Y-2367150D02*
X1170063Y-2367150D01*
X1170063Y-2367150D02*
X1189110Y-2376674D01*
X1189110Y-2376674D02*
X1198634Y-2395722D01*
X1198634Y-2395722D02*
X1198634Y-2500484D01*
X1198634Y-2395722D02*
X1208158Y-2376674D01*
X1208158Y-2376674D02*
X1227205Y-2367150D01*
X1227205Y-2367150D02*
X1255777Y-2367150D01*
X1255777Y-2367150D02*
X1274825Y-2376674D01*
X1274825Y-2376674D02*
X1284348Y-2395722D01*
X1284348Y-2395722D02*
X1284348Y-2500484D01*
X1379586Y-2500484D02*
X1379586Y-2367150D01*
X1379586Y-2386198D02*
X1389110Y-2376674D01*
X1389110Y-2376674D02*
X1408158Y-2367150D01*
X1408158Y-2367150D02*
X1436729Y-2367150D01*
X1436729Y-2367150D02*
X1455777Y-2376674D01*
X1455777Y-2376674D02*
X1465301Y-2395722D01*
X1465301Y-2395722D02*
X1465301Y-2500484D01*
X1465301Y-2395722D02*
X1474824Y-2376674D01*
X1474824Y-2376674D02*
X1493872Y-2367150D01*
X1493872Y-2367150D02*
X1522443Y-2367150D01*
X1522443Y-2367150D02*
X1541491Y-2376674D01*
X1541491Y-2376674D02*
X1551015Y-2395722D01*
X1551015Y-2395722D02*
X1551015Y-2500484D01*
X1941491Y-2290960D02*
X1770063Y-2548103D01*
X2198634Y-2300484D02*
X2217682Y-2300484D01*
X2217682Y-2300484D02*
X2236729Y-2310008D01*
X2236729Y-2310008D02*
X2246253Y-2319531D01*
X2246253Y-2319531D02*
X2255777Y-2338579D01*
X2255777Y-2338579D02*
X2265301Y-2376674D01*
X2265301Y-2376674D02*
X2265301Y-2424293D01*
X2265301Y-2424293D02*
X2255777Y-2462389D01*
X2255777Y-2462389D02*
X2246253Y-2481436D01*
X2246253Y-2481436D02*
X2236729Y-2490960D01*
X2236729Y-2490960D02*
X2217682Y-2500484D01*
X2217682Y-2500484D02*
X2198634Y-2500484D01*
X2198634Y-2500484D02*
X2179587Y-2490960D01*
X2179587Y-2490960D02*
X2170063Y-2481436D01*
X2170063Y-2481436D02*
X2160539Y-2462389D01*
X2160539Y-2462389D02*
X2151015Y-2424293D01*
X2151015Y-2424293D02*
X2151015Y-2376674D01*
X2151015Y-2376674D02*
X2160539Y-2338579D01*
X2160539Y-2338579D02*
X2170063Y-2319531D01*
X2170063Y-2319531D02*
X2179587Y-2310008D01*
X2179587Y-2310008D02*
X2198634Y-2300484D01*
X2351015Y-2481436D02*
X2360539Y-2490960D01*
X2360539Y-2490960D02*
X2351015Y-2500484D01*
X2351015Y-2500484D02*
X2341491Y-2490960D01*
X2341491Y-2490960D02*
X2351015Y-2481436D01*
X2351015Y-2481436D02*
X2351015Y-2500484D01*
X2484348Y-2300484D02*
X2503396Y-2300484D01*
X2503396Y-2300484D02*
X2522444Y-2310008D01*
X2522444Y-2310008D02*
X2531968Y-2319531D01*
X2531968Y-2319531D02*
X2541491Y-2338579D01*
X2541491Y-2338579D02*
X2551015Y-2376674D01*
X2551015Y-2376674D02*
X2551015Y-2424293D01*
X2551015Y-2424293D02*
X2541491Y-2462389D01*
X2541491Y-2462389D02*
X2531968Y-2481436D01*
X2531968Y-2481436D02*
X2522444Y-2490960D01*
X2522444Y-2490960D02*
X2503396Y-2500484D01*
X2503396Y-2500484D02*
X2484348Y-2500484D01*
X2484348Y-2500484D02*
X2465301Y-2490960D01*
X2465301Y-2490960D02*
X2455777Y-2481436D01*
X2455777Y-2481436D02*
X2446253Y-2462389D01*
X2446253Y-2462389D02*
X2436729Y-2424293D01*
X2436729Y-2424293D02*
X2436729Y-2376674D01*
X2436729Y-2376674D02*
X2446253Y-2338579D01*
X2446253Y-2338579D02*
X2455777Y-2319531D01*
X2455777Y-2319531D02*
X2465301Y-2310008D01*
X2465301Y-2310008D02*
X2484348Y-2300484D01*
X2617682Y-2300484D02*
X2741491Y-2300484D01*
X2741491Y-2300484D02*
X2674825Y-2376674D01*
X2674825Y-2376674D02*
X2703396Y-2376674D01*
X2703396Y-2376674D02*
X2722444Y-2386198D01*
X2722444Y-2386198D02*
X2731968Y-2395722D01*
X2731968Y-2395722D02*
X2741491Y-2414770D01*
X2741491Y-2414770D02*
X2741491Y-2462389D01*
X2741491Y-2462389D02*
X2731968Y-2481436D01*
X2731968Y-2481436D02*
X2722444Y-2490960D01*
X2722444Y-2490960D02*
X2703396Y-2500484D01*
X2703396Y-2500484D02*
X2646253Y-2500484D01*
X2646253Y-2500484D02*
X2627206Y-2490960D01*
X2627206Y-2490960D02*
X2617682Y-2481436D01*
X2836729Y-2500484D02*
X2874825Y-2500484D01*
X2874825Y-2500484D02*
X2893872Y-2490960D01*
X2893872Y-2490960D02*
X2903396Y-2481436D01*
X2903396Y-2481436D02*
X2922444Y-2452865D01*
X2922444Y-2452865D02*
X2931967Y-2414770D01*
X2931967Y-2414770D02*
X2931967Y-2338579D01*
X2931967Y-2338579D02*
X2922444Y-2319531D01*
X2922444Y-2319531D02*
X2912920Y-2310008D01*
X2912920Y-2310008D02*
X2893872Y-2300484D01*
X2893872Y-2300484D02*
X2855777Y-2300484D01*
X2855777Y-2300484D02*
X2836729Y-2310008D01*
X2836729Y-2310008D02*
X2827206Y-2319531D01*
X2827206Y-2319531D02*
X2817682Y-2338579D01*
X2817682Y-2338579D02*
X2817682Y-2386198D01*
X2817682Y-2386198D02*
X2827206Y-2405246D01*
X2827206Y-2405246D02*
X2836729Y-2414770D01*
X2836729Y-2414770D02*
X2855777Y-2424293D01*
X2855777Y-2424293D02*
X2893872Y-2424293D01*
X2893872Y-2424293D02*
X2912920Y-2414770D01*
X2912920Y-2414770D02*
X2922444Y-2405246D01*
X2922444Y-2405246D02*
X2931967Y-2386198D01*
X3103396Y-2367150D02*
X3103396Y-2500484D01*
X3055777Y-2290960D02*
X3008158Y-2433817D01*
X3008158Y-2433817D02*
X3131967Y-2433817D01*
X3198634Y-2300484D02*
X3198634Y-2338579D01*
X3274825Y-2300484D02*
X3274825Y-2338579D01*
X3570063Y-2576674D02*
X3560539Y-2567150D01*
X3560539Y-2567150D02*
X3541491Y-2538579D01*
X3541491Y-2538579D02*
X3531968Y-2519531D01*
X3531968Y-2519531D02*
X3522444Y-2490960D01*
X3522444Y-2490960D02*
X3512920Y-2443341D01*
X3512920Y-2443341D02*
X3512920Y-2405246D01*
X3512920Y-2405246D02*
X3522444Y-2357627D01*
X3522444Y-2357627D02*
X3531968Y-2329055D01*
X3531968Y-2329055D02*
X3541491Y-2310008D01*
X3541491Y-2310008D02*
X3560539Y-2281436D01*
X3560539Y-2281436D02*
X3570063Y-2271912D01*
X3731968Y-2367150D02*
X3731968Y-2500484D01*
X3684348Y-2290960D02*
X3636729Y-2433817D01*
X3636729Y-2433817D02*
X3760539Y-2433817D01*
X3989110Y-2500484D02*
X3989110Y-2300484D01*
X4074825Y-2500484D02*
X4074825Y-2395722D01*
X4074825Y-2395722D02*
X4065301Y-2376674D01*
X4065301Y-2376674D02*
X4046253Y-2367150D01*
X4046253Y-2367150D02*
X4017682Y-2367150D01*
X4017682Y-2367150D02*
X3998634Y-2376674D01*
X3998634Y-2376674D02*
X3989110Y-2386198D01*
X4198634Y-2500484D02*
X4179587Y-2490960D01*
X4179587Y-2490960D02*
X4170063Y-2481436D01*
X4170063Y-2481436D02*
X4160539Y-2462389D01*
X4160539Y-2462389D02*
X4160539Y-2405246D01*
X4160539Y-2405246D02*
X4170063Y-2386198D01*
X4170063Y-2386198D02*
X4179587Y-2376674D01*
X4179587Y-2376674D02*
X4198634Y-2367150D01*
X4198634Y-2367150D02*
X4227206Y-2367150D01*
X4227206Y-2367150D02*
X4246253Y-2376674D01*
X4246253Y-2376674D02*
X4255777Y-2386198D01*
X4255777Y-2386198D02*
X4265301Y-2405246D01*
X4265301Y-2405246D02*
X4265301Y-2462389D01*
X4265301Y-2462389D02*
X4255777Y-2481436D01*
X4255777Y-2481436D02*
X4246253Y-2490960D01*
X4246253Y-2490960D02*
X4227206Y-2500484D01*
X4227206Y-2500484D02*
X4198634Y-2500484D01*
X4379587Y-2500484D02*
X4360539Y-2490960D01*
X4360539Y-2490960D02*
X4351015Y-2471912D01*
X4351015Y-2471912D02*
X4351015Y-2300484D01*
X4531968Y-2490960D02*
X4512920Y-2500484D01*
X4512920Y-2500484D02*
X4474825Y-2500484D01*
X4474825Y-2500484D02*
X4455777Y-2490960D01*
X4455777Y-2490960D02*
X4446253Y-2471912D01*
X4446253Y-2471912D02*
X4446253Y-2395722D01*
X4446253Y-2395722D02*
X4455777Y-2376674D01*
X4455777Y-2376674D02*
X4474825Y-2367150D01*
X4474825Y-2367150D02*
X4512920Y-2367150D01*
X4512920Y-2367150D02*
X4531968Y-2376674D01*
X4531968Y-2376674D02*
X4541492Y-2395722D01*
X4541492Y-2395722D02*
X4541492Y-2414770D01*
X4541492Y-2414770D02*
X4446253Y-2433817D01*
X4617682Y-2490960D02*
X4636730Y-2500484D01*
X4636730Y-2500484D02*
X4674825Y-2500484D01*
X4674825Y-2500484D02*
X4693873Y-2490960D01*
X4693873Y-2490960D02*
X4703396Y-2471912D01*
X4703396Y-2471912D02*
X4703396Y-2462389D01*
X4703396Y-2462389D02*
X4693873Y-2443341D01*
X4693873Y-2443341D02*
X4674825Y-2433817D01*
X4674825Y-2433817D02*
X4646253Y-2433817D01*
X4646253Y-2433817D02*
X4627206Y-2424293D01*
X4627206Y-2424293D02*
X4617682Y-2405246D01*
X4617682Y-2405246D02*
X4617682Y-2395722D01*
X4617682Y-2395722D02*
X4627206Y-2376674D01*
X4627206Y-2376674D02*
X4646253Y-2367150D01*
X4646253Y-2367150D02*
X4674825Y-2367150D01*
X4674825Y-2367150D02*
X4693873Y-2376674D01*
X4770063Y-2576674D02*
X4779587Y-2567150D01*
X4779587Y-2567150D02*
X4798634Y-2538579D01*
X4798634Y-2538579D02*
X4808158Y-2519531D01*
X4808158Y-2519531D02*
X4817682Y-2490960D01*
X4817682Y-2490960D02*
X4827206Y-2443341D01*
X4827206Y-2443341D02*
X4827206Y-2405246D01*
X4827206Y-2405246D02*
X4817682Y-2357627D01*
X4817682Y-2357627D02*
X4808158Y-2329055D01*
X4808158Y-2329055D02*
X4798634Y-2310008D01*
X4798634Y-2310008D02*
X4779587Y-2281436D01*
X4779587Y-2281436D02*
X4770063Y-2271912D01*
M02*
