%TF.GenerationSoftware,KiCad,Pcbnew,9.0.9-9.0.9~ubuntu24.04.1*%
%TF.CreationDate,2026-09-23T21:04:58+00:00*%
%TF.ProjectId,temperature-sensor,74656d70-6572-4617-9475-72652d73656e,rev?*%
%TF.SameCoordinates,Original*%
%TF.FileFunction,Legend,Top*%
%TF.FilePolarity,Positive*%
%FSLAX46Y46*%
G04 Gerber Fmt 4.6, Leading zero omitted, Abs format (unit mm)*
G04 Created by KiCad (PCBNEW 9.0.9-9.0.9~ubuntu24.04.1) date 2026-09-23 21:04:58*
%MOMM*%
%LPD*%
G01*
G04 APERTURE LIST*
G04 Aperture macros list*
%AMRoundRect*
0 Rectangle with rounded corners*
0 $1 Rounding radius*
0 $2 $3 $4 $5 $6 $7 $8 $9 X,Y pos of 4 corners*
0 Add a 4 corners polygon primitive as box body*
4,1,4,$2,$3,$4,$5,$6,$7,$8,$9,$2,$3,0*
0 Add four circle primitives for the rounded corners*
1,1,$1+$1,$2,$3*
1,1,$1+$1,$4,$5*
1,1,$1+$1,$6,$7*
1,1,$1+$1,$8,$9*
0 Add four rect primitives between the rounded corners*
20,1,$1+$1,$2,$3,$4,$5,0*
20,1,$1+$1,$4,$5,$6,$7,0*
20,1,$1+$1,$6,$7,$8,$9,0*
20,1,$1+$1,$8,$9,$2,$3,0*%
G04 Aperture macros list end*
%ADD10C,0.150000*%
%ADD11C,0.120000*%
%ADD12RoundRect,0.218750X-0.218750X-0.256250X0.218750X-0.256250X0.218750X0.256250X-0.218750X0.256250X0*%
%ADD13RoundRect,0.200000X-0.275000X0.200000X-0.275000X-0.200000X0.275000X-0.200000X0.275000X0.200000X0*%
%ADD14R,1.700000X1.700000*%
%ADD15C,1.700000*%
%ADD16RoundRect,0.200000X-0.200000X-0.275000X0.200000X-0.275000X0.200000X0.275000X-0.200000X0.275000X0*%
%ADD17RoundRect,0.150000X0.512500X0.150000X-0.512500X0.150000X-0.512500X-0.150000X0.512500X-0.150000X0*%
%ADD18RoundRect,0.225000X-0.225000X-0.250000X0.225000X-0.250000X0.225000X0.250000X-0.225000X0.250000X0*%
%ADD19RoundRect,0.200000X0.200000X0.275000X-0.200000X0.275000X-0.200000X-0.275000X0.200000X-0.275000X0*%
G04 APERTURE END LIST*
D10*
X9761905Y-5524819D02*
X9761905Y-4524819D01*
X9761905Y-4524819D02*
X10000000Y-4524819D01*
X10000000Y-4524819D02*
X10142857Y-4572438D01*
X10142857Y-4572438D02*
X10238095Y-4667676D01*
X10238095Y-4667676D02*
X10285714Y-4762914D01*
X10285714Y-4762914D02*
X10333333Y-4953390D01*
X10333333Y-4953390D02*
X10333333Y-5096247D01*
X10333333Y-5096247D02*
X10285714Y-5286723D01*
X10285714Y-5286723D02*
X10238095Y-5381961D01*
X10238095Y-5381961D02*
X10142857Y-5477200D01*
X10142857Y-5477200D02*
X10000000Y-5524819D01*
X10000000Y-5524819D02*
X9761905Y-5524819D01*
X11285714Y-5524819D02*
X10714286Y-5524819D01*
X11000000Y-5524819D02*
X11000000Y-4524819D01*
X11000000Y-4524819D02*
X10904762Y-4667676D01*
X10904762Y-4667676D02*
X10809524Y-4762914D01*
X10809524Y-4762914D02*
X10714286Y-4810533D01*
X10884819Y-10666666D02*
X10408628Y-10999999D01*
X10884819Y-11238094D02*
X9884819Y-11238094D01*
X9884819Y-11238094D02*
X9884819Y-10857142D01*
X9884819Y-10857142D02*
X9932438Y-10761904D01*
X9932438Y-10761904D02*
X9980057Y-10714285D01*
X9980057Y-10714285D02*
X10075295Y-10666666D01*
X10075295Y-10666666D02*
X10218152Y-10666666D01*
X10218152Y-10666666D02*
X10313390Y-10714285D01*
X10313390Y-10714285D02*
X10361009Y-10761904D01*
X10361009Y-10761904D02*
X10408628Y-10857142D01*
X10408628Y-10857142D02*
X10408628Y-11238094D01*
X9884819Y-10333332D02*
X9884819Y-9714285D01*
X9884819Y-9714285D02*
X10265771Y-10047618D01*
X10265771Y-10047618D02*
X10265771Y-9904761D01*
X10265771Y-9904761D02*
X10313390Y-9809523D01*
X10313390Y-9809523D02*
X10361009Y-9761904D01*
X10361009Y-9761904D02*
X10456247Y-9714285D01*
X10456247Y-9714285D02*
X10694342Y-9714285D01*
X10694342Y-9714285D02*
X10789580Y-9761904D01*
X10789580Y-9761904D02*
X10837200Y-9809523D01*
X10837200Y-9809523D02*
X10884819Y-9904761D01*
X10884819Y-9904761D02*
X10884819Y-10190475D01*
X10884819Y-10190475D02*
X10837200Y-10285713D01*
X10837200Y-10285713D02*
X10789580Y-10333332D01*
X1961666Y-764819D02*
X1961666Y-1479104D01*
X1961666Y-1479104D02*
X1914047Y-1621961D01*
X1914047Y-1621961D02*
X1818809Y-1717200D01*
X1818809Y-1717200D02*
X1675952Y-1764819D01*
X1675952Y-1764819D02*
X1580714Y-1764819D01*
X2961666Y-1764819D02*
X2390238Y-1764819D01*
X2675952Y-1764819D02*
X2675952Y-764819D01*
X2675952Y-764819D02*
X2580714Y-907676D01*
X2580714Y-907676D02*
X2485476Y-1002914D01*
X2485476Y-1002914D02*
X2390238Y-1050533D01*
X10333333Y-3524819D02*
X10000000Y-3048628D01*
X9761905Y-3524819D02*
X9761905Y-2524819D01*
X9761905Y-2524819D02*
X10142857Y-2524819D01*
X10142857Y-2524819D02*
X10238095Y-2572438D01*
X10238095Y-2572438D02*
X10285714Y-2620057D01*
X10285714Y-2620057D02*
X10333333Y-2715295D01*
X10333333Y-2715295D02*
X10333333Y-2858152D01*
X10333333Y-2858152D02*
X10285714Y-2953390D01*
X10285714Y-2953390D02*
X10238095Y-3001009D01*
X10238095Y-3001009D02*
X10142857Y-3048628D01*
X10142857Y-3048628D02*
X9761905Y-3048628D01*
X11285714Y-3524819D02*
X10714286Y-3524819D01*
X11000000Y-3524819D02*
X11000000Y-2524819D01*
X11000000Y-2524819D02*
X10904762Y-2667676D01*
X10904762Y-2667676D02*
X10809524Y-2762914D01*
X10809524Y-2762914D02*
X10714286Y-2810533D01*
X5738095Y-8354819D02*
X5738095Y-9164342D01*
X5738095Y-9164342D02*
X5785714Y-9259580D01*
X5785714Y-9259580D02*
X5833333Y-9307200D01*
X5833333Y-9307200D02*
X5928571Y-9354819D01*
X5928571Y-9354819D02*
X6119047Y-9354819D01*
X6119047Y-9354819D02*
X6214285Y-9307200D01*
X6214285Y-9307200D02*
X6261904Y-9259580D01*
X6261904Y-9259580D02*
X6309523Y-9164342D01*
X6309523Y-9164342D02*
X6309523Y-8354819D01*
X7309523Y-9354819D02*
X6738095Y-9354819D01*
X7023809Y-9354819D02*
X7023809Y-8354819D01*
X7023809Y-8354819D02*
X6928571Y-8497676D01*
X6928571Y-8497676D02*
X6833333Y-8592914D01*
X6833333Y-8592914D02*
X6738095Y-8640533D01*
X5833333Y-2429580D02*
X5785714Y-2477200D01*
X5785714Y-2477200D02*
X5642857Y-2524819D01*
X5642857Y-2524819D02*
X5547619Y-2524819D01*
X5547619Y-2524819D02*
X5404762Y-2477200D01*
X5404762Y-2477200D02*
X5309524Y-2381961D01*
X5309524Y-2381961D02*
X5261905Y-2286723D01*
X5261905Y-2286723D02*
X5214286Y-2096247D01*
X5214286Y-2096247D02*
X5214286Y-1953390D01*
X5214286Y-1953390D02*
X5261905Y-1762914D01*
X5261905Y-1762914D02*
X5309524Y-1667676D01*
X5309524Y-1667676D02*
X5404762Y-1572438D01*
X5404762Y-1572438D02*
X5547619Y-1524819D01*
X5547619Y-1524819D02*
X5642857Y-1524819D01*
X5642857Y-1524819D02*
X5785714Y-1572438D01*
X5785714Y-1572438D02*
X5833333Y-1620057D01*
X6785714Y-2524819D02*
X6214286Y-2524819D01*
X6500000Y-2524819D02*
X6500000Y-1524819D01*
X6500000Y-1524819D02*
X6404762Y-1667676D01*
X6404762Y-1667676D02*
X6309524Y-1762914D01*
X6309524Y-1762914D02*
X6214286Y-1810533D01*
X5833333Y-11384819D02*
X5500000Y-10908628D01*
X5261905Y-11384819D02*
X5261905Y-10384819D01*
X5261905Y-10384819D02*
X5642857Y-10384819D01*
X5642857Y-10384819D02*
X5738095Y-10432438D01*
X5738095Y-10432438D02*
X5785714Y-10480057D01*
X5785714Y-10480057D02*
X5833333Y-10575295D01*
X5833333Y-10575295D02*
X5833333Y-10718152D01*
X5833333Y-10718152D02*
X5785714Y-10813390D01*
X5785714Y-10813390D02*
X5738095Y-10861009D01*
X5738095Y-10861009D02*
X5642857Y-10908628D01*
X5642857Y-10908628D02*
X5261905Y-10908628D01*
X6214286Y-10480057D02*
X6261905Y-10432438D01*
X6261905Y-10432438D02*
X6357143Y-10384819D01*
X6357143Y-10384819D02*
X6595238Y-10384819D01*
X6595238Y-10384819D02*
X6690476Y-10432438D01*
X6690476Y-10432438D02*
X6738095Y-10480057D01*
X6738095Y-10480057D02*
X6785714Y-10575295D01*
X6785714Y-10575295D02*
X6785714Y-10670533D01*
X6785714Y-10670533D02*
X6738095Y-10813390D01*
X6738095Y-10813390D02*
X6166667Y-11384819D01*
X6166667Y-11384819D02*
X6785714Y-11384819D01*
D11*
%TO.C,D1*%
X9015000Y-5765000D02*
X9015000Y-7235000D01*
X9015000Y-7235000D02*
X11300000Y-7235000D01*
X11300000Y-5765000D02*
X9015000Y-5765000D01*
%TO.C,R3*%
X8477500Y-10262742D02*
X8477500Y-10737258D01*
X9522500Y-10262742D02*
X9522500Y-10737258D01*
%TO.C,J1*%
X915000Y-2310000D02*
X2295000Y-2310000D01*
X915000Y-3690000D02*
X915000Y-2310000D01*
X915000Y-4960000D02*
X915000Y-12690000D01*
X915000Y-4960000D02*
X3675000Y-4960000D01*
X915000Y-12690000D02*
X3675000Y-12690000D01*
X3675000Y-4960000D02*
X3675000Y-12690000D01*
%TO.C,R1*%
X10262742Y-3977500D02*
X10737258Y-3977500D01*
X10262742Y-5022500D02*
X10737258Y-5022500D01*
%TO.C,U1*%
X5590000Y-4940000D02*
X7410000Y-4940000D01*
X5590000Y-4990000D02*
X5590000Y-4940000D01*
X5590000Y-8060000D02*
X5590000Y-8010000D01*
X7410000Y-4940000D02*
X7410000Y-4990000D01*
X7410000Y-8010000D02*
X7410000Y-8060000D01*
X7410000Y-8060000D02*
X5590000Y-8060000D01*
X8190000Y-8340000D02*
X7710000Y-8340000D01*
X7950000Y-8010000D01*
X8190000Y-8340000D01*
G36*
X8190000Y-8340000D02*
G01*
X7710000Y-8340000D01*
X7950000Y-8010000D01*
X8190000Y-8340000D01*
G37*
%TO.C,C1*%
X5859420Y-2990000D02*
X6140580Y-2990000D01*
X5859420Y-4010000D02*
X6140580Y-4010000D01*
%TO.C,R2*%
X6237258Y-8977500D02*
X5762742Y-8977500D01*
X6237258Y-10022500D02*
X5762742Y-10022500D01*
%TD*%
%LPC*%
D12*
%TO.C,D1*%
X9712500Y-6500000D03*
X11287500Y-6500000D03*
%TD*%
D13*
%TO.C,R3*%
X9000000Y-9675000D03*
X9000000Y-11325000D03*
%TD*%
D14*
%TO.C,J1*%
X2295000Y-3690000D03*
D15*
X2295000Y-6230000D03*
X2295000Y-8770000D03*
X2295000Y-11310000D03*
%TD*%
D16*
%TO.C,R1*%
X9675000Y-4500000D03*
X11325000Y-4500000D03*
%TD*%
D17*
%TO.C,U1*%
X7637500Y-7450000D03*
X7637500Y-6500000D03*
X7637500Y-5550000D03*
X5362500Y-5550000D03*
X5362500Y-6500000D03*
X5362500Y-7450000D03*
%TD*%
D18*
%TO.C,C1*%
X5225000Y-3500000D03*
X6775000Y-3500000D03*
%TD*%
D19*
%TO.C,R2*%
X6825000Y-9500000D03*
X5175000Y-9500000D03*
%TD*%
%LPD*%
M02*
