%TF.GenerationSoftware,KiCad,Pcbnew,9.0.9-9.0.9~ubuntu24.04.1*%
%TF.CreationDate,2026-09-24T20:21:33+00:00*%
%TF.ProjectId,temperature-sensor,74656d70-6572-4617-9475-72652d73656e,rev?*%
%TF.SameCoordinates,Original*%
%TF.FileFunction,Copper,L2,Bot*%
%TF.FilePolarity,Positive*%
%FSLAX46Y46*%
G04 Gerber Fmt 4.6, Leading zero omitted, Abs format (unit mm)*
G04 Created by KiCad (PCBNEW 9.0.9-9.0.9~ubuntu24.04.1) date 2026-09-24 20:21:33*
%MOMM*%
%LPD*%
G01*
G04 APERTURE LIST*
%TA.AperFunction,ComponentPad*%
%ADD10R,1.700000X1.700000*%
%TD*%
%TA.AperFunction,ComponentPad*%
%ADD11C,1.700000*%
%TD*%
%TA.AperFunction,ViaPad*%
%ADD12C,0.600000*%
%TD*%
%TA.AperFunction,Conductor*%
%ADD13C,0.250000*%
%TD*%
G04 APERTURE END LIST*
D10*
%TO.P,J1,1*%
%TO.N,VCC*%
X102600000Y-103300000D03*
D11*
%TO.P,J1,2*%
%TO.N,GND*%
X102600000Y-105840000D03*
%TO.P,J1,3*%
%TO.N,SDA*%
X102600000Y-108380000D03*
%TO.P,J1,4*%
%TO.N,SCL*%
X102600000Y-110920000D03*
%TD*%
D12*
%TO.N,/indicator/LED_A*%
X115506300Y-102161800D03*
X113372600Y-105350600D03*
%TO.N,GND*%
X105910400Y-103994300D03*
%TO.N,SCL*%
X111084300Y-106817000D03*
X107768400Y-110920000D03*
X108837400Y-109200000D03*
%TO.N,VCC*%
X105981600Y-109006600D03*
X110661200Y-109927000D03*
X106166400Y-105075000D03*
X109979600Y-110293200D03*
%TD*%
D13*
%TO.N,/indicator/LED_A*%
X115506300Y-103216900D02*
X115506300Y-102161800D01*
X113372600Y-105350600D02*
X115506300Y-103216900D01*
%TO.N,GND*%
X104064700Y-105840000D02*
X105910400Y-103994300D01*
X102600000Y-105840000D02*
X104064700Y-105840000D01*
%TO.N,SCL*%
X108837400Y-109063900D02*
X108837400Y-109200000D01*
X108837400Y-109851000D02*
X107768400Y-110920000D01*
X108837400Y-109200000D02*
X108837400Y-109851000D01*
X111084300Y-106817000D02*
X108837400Y-109063900D01*
%TO.N,VCC*%
X109979600Y-110293200D02*
X110295000Y-110293200D01*
X106166400Y-105075000D02*
X106166400Y-108821800D01*
X110295000Y-110293200D02*
X110661200Y-109927000D01*
X106166400Y-108821800D02*
X105981600Y-109006600D01*
%TD*%
%TA.AperFunction,Conductor*%
%TO.N,GND*%
G36*
X121506061Y-101101097D02*
G01*
X121624317Y-101112744D01*
X121648145Y-101117483D01*
X121756005Y-101150202D01*
X121778454Y-101159501D01*
X121877850Y-101212629D01*
X121898061Y-101226134D01*
X121985180Y-101297631D01*
X122002368Y-101314819D01*
X122073865Y-101401938D01*
X122087370Y-101422149D01*
X122140495Y-101521538D01*
X122149798Y-101543997D01*
X122182514Y-101651848D01*
X122187256Y-101675688D01*
X122198903Y-101793937D01*
X122199500Y-101806092D01*
X122199500Y-112493907D01*
X122198903Y-112506061D01*
X122198903Y-112506062D01*
X122187256Y-112624311D01*
X122182514Y-112648151D01*
X122149798Y-112756002D01*
X122140495Y-112778461D01*
X122087370Y-112877850D01*
X122073865Y-112898061D01*
X122002368Y-112985180D01*
X121985180Y-113002368D01*
X121898061Y-113073865D01*
X121877850Y-113087370D01*
X121778461Y-113140495D01*
X121756002Y-113149798D01*
X121648151Y-113182514D01*
X121624311Y-113187256D01*
X121537215Y-113195834D01*
X121506060Y-113198903D01*
X121493907Y-113199500D01*
X101006093Y-113199500D01*
X100993939Y-113198903D01*
X100943081Y-113193893D01*
X100875688Y-113187256D01*
X100851848Y-113182514D01*
X100743997Y-113149798D01*
X100721540Y-113140496D01*
X100622149Y-113087370D01*
X100601938Y-113073865D01*
X100514819Y-113002368D01*
X100497631Y-112985180D01*
X100426134Y-112898061D01*
X100412629Y-112877850D01*
X100359501Y-112778454D01*
X100350201Y-112756002D01*
X100317483Y-112648145D01*
X100312744Y-112624317D01*
X100301097Y-112506061D01*
X100300500Y-112493907D01*
X100300500Y-110822439D01*
X101609500Y-110822439D01*
X101609500Y-111017560D01*
X101647562Y-111208910D01*
X101647565Y-111208922D01*
X101722226Y-111389171D01*
X101722233Y-111389184D01*
X101830627Y-111551406D01*
X101830630Y-111551410D01*
X101968589Y-111689369D01*
X101968593Y-111689372D01*
X102130815Y-111797766D01*
X102130828Y-111797773D01*
X102269120Y-111855055D01*
X102311082Y-111872436D01*
X102472969Y-111904637D01*
X102502439Y-111910499D01*
X102502443Y-111910500D01*
X102502444Y-111910500D01*
X102697557Y-111910500D01*
X102697558Y-111910499D01*
X102888918Y-111872436D01*
X103069178Y-111797770D01*
X103231407Y-111689372D01*
X103369372Y-111551407D01*
X103477770Y-111389178D01*
X103552436Y-111208918D01*
X103590500Y-111017556D01*
X103590500Y-110862007D01*
X107327900Y-110862007D01*
X107327900Y-110977992D01*
X107357919Y-111090028D01*
X107376282Y-111121832D01*
X107415912Y-111190473D01*
X107497927Y-111272488D01*
X107598373Y-111330481D01*
X107710407Y-111360500D01*
X107710409Y-111360500D01*
X107826391Y-111360500D01*
X107826393Y-111360500D01*
X107938427Y-111330481D01*
X108038873Y-111272488D01*
X108120888Y-111190473D01*
X108178881Y-111090027D01*
X108208900Y-110977993D01*
X108208900Y-110906335D01*
X108228585Y-110839296D01*
X108245219Y-110818654D01*
X108828667Y-110235207D01*
X109539100Y-110235207D01*
X109539100Y-110351193D01*
X109547825Y-110383756D01*
X109569119Y-110463228D01*
X109576878Y-110476666D01*
X109627112Y-110563673D01*
X109709127Y-110645688D01*
X109809573Y-110703681D01*
X109921607Y-110733700D01*
X109921609Y-110733700D01*
X110037591Y-110733700D01*
X110037593Y-110733700D01*
X110149627Y-110703681D01*
X110156004Y-110699999D01*
X118348372Y-110699999D01*
X118349351Y-110719929D01*
X118349500Y-110726012D01*
X118349500Y-110806287D01*
X118349499Y-110806287D01*
X118372947Y-110954329D01*
X118373062Y-110955060D01*
X118374343Y-110963690D01*
X118374579Y-110964636D01*
X118375149Y-110968231D01*
X118382753Y-111016238D01*
X118382755Y-111016248D01*
X118397921Y-111062923D01*
X118403503Y-111080103D01*
X118406573Y-111092357D01*
X118416483Y-111120057D01*
X118417060Y-111121832D01*
X118448442Y-111218412D01*
X118488911Y-111297837D01*
X118495362Y-111310497D01*
X118507970Y-111337153D01*
X118514466Y-111347990D01*
X118516400Y-111351786D01*
X118516403Y-111351791D01*
X118544949Y-111407816D01*
X118575659Y-111450085D01*
X118576162Y-111450924D01*
X118581393Y-111457977D01*
X118669896Y-111579792D01*
X118728826Y-111638722D01*
X118744255Y-111655745D01*
X118761277Y-111671173D01*
X118820211Y-111730107D01*
X118941583Y-111818288D01*
X118941584Y-111818288D01*
X118942022Y-111818606D01*
X118949076Y-111823838D01*
X118949914Y-111824340D01*
X118952883Y-111826497D01*
X118952885Y-111826499D01*
X118992171Y-111855042D01*
X118992176Y-111855045D01*
X118992184Y-111855051D01*
X118992187Y-111855052D01*
X118992191Y-111855055D01*
X119048198Y-111883591D01*
X119052002Y-111885529D01*
X119062847Y-111892030D01*
X119089502Y-111904637D01*
X119181588Y-111951557D01*
X119279901Y-111983501D01*
X119307643Y-111993427D01*
X119319892Y-111996495D01*
X119323936Y-111997809D01*
X119323948Y-111997812D01*
X119383757Y-112017246D01*
X119435361Y-112025419D01*
X119436310Y-112025657D01*
X119445005Y-112026946D01*
X119593713Y-112050500D01*
X119677037Y-112050500D01*
X119700000Y-112051628D01*
X119722963Y-112050500D01*
X119806287Y-112050500D01*
X119954346Y-112027048D01*
X119954351Y-112027048D01*
X119955008Y-112026943D01*
X119963690Y-112025657D01*
X119964638Y-112025419D01*
X119968256Y-112024846D01*
X119968258Y-112024846D01*
X119979045Y-112023137D01*
X120016243Y-112017246D01*
X120080103Y-111996496D01*
X120092357Y-111993427D01*
X120120098Y-111983501D01*
X120218412Y-111951557D01*
X120310497Y-111904637D01*
X120337153Y-111892030D01*
X120347997Y-111885529D01*
X120407816Y-111855051D01*
X120450085Y-111824340D01*
X120450924Y-111823838D01*
X120457977Y-111818606D01*
X120579792Y-111730104D01*
X120638722Y-111671173D01*
X120655745Y-111655745D01*
X120671173Y-111638722D01*
X120730104Y-111579792D01*
X120818606Y-111457977D01*
X120823838Y-111450924D01*
X120824340Y-111450085D01*
X120855051Y-111407816D01*
X120885529Y-111347997D01*
X120892030Y-111337153D01*
X120904637Y-111310497D01*
X120951557Y-111218412D01*
X120983501Y-111120098D01*
X120993427Y-111092357D01*
X120996496Y-111080103D01*
X121017246Y-111016243D01*
X121025419Y-110964638D01*
X121025657Y-110963690D01*
X121026946Y-110954994D01*
X121050500Y-110806287D01*
X121050500Y-110722962D01*
X121051628Y-110700000D01*
X121050500Y-110677037D01*
X121050500Y-110593713D01*
X121026946Y-110445005D01*
X121025657Y-110436310D01*
X121025419Y-110435361D01*
X121017246Y-110383757D01*
X120996496Y-110319896D01*
X120993427Y-110307643D01*
X120983501Y-110279901D01*
X120951557Y-110181588D01*
X120904637Y-110089502D01*
X120892030Y-110062847D01*
X120885529Y-110052002D01*
X120855051Y-109992184D01*
X120849826Y-109984993D01*
X120826499Y-109952885D01*
X120826496Y-109952882D01*
X120826474Y-109952852D01*
X120824340Y-109949914D01*
X120823838Y-109949076D01*
X120818606Y-109942022D01*
X120818288Y-109941584D01*
X120818287Y-109941582D01*
X120730107Y-109820211D01*
X120671173Y-109761277D01*
X120655745Y-109744255D01*
X120638722Y-109728826D01*
X120579792Y-109669896D01*
X120457977Y-109581393D01*
X120450924Y-109576162D01*
X120450085Y-109575659D01*
X120407816Y-109544949D01*
X120351783Y-109516399D01*
X120347993Y-109514467D01*
X120337153Y-109507970D01*
X120310512Y-109495369D01*
X120308881Y-109494538D01*
X120308868Y-109494532D01*
X120261647Y-109470472D01*
X120218412Y-109448442D01*
X120121837Y-109417061D01*
X120121837Y-109417062D01*
X120120068Y-109416487D01*
X120092357Y-109406573D01*
X120080103Y-109403503D01*
X120076048Y-109402185D01*
X120076047Y-109402185D01*
X120062923Y-109397921D01*
X120016248Y-109382755D01*
X120016238Y-109382753D01*
X119968231Y-109375149D01*
X119964636Y-109374579D01*
X119963690Y-109374343D01*
X119955060Y-109373062D01*
X119954329Y-109372947D01*
X119954327Y-109372946D01*
X119806287Y-109349500D01*
X119722963Y-109349500D01*
X119700000Y-109348372D01*
X119677037Y-109349500D01*
X119593713Y-109349500D01*
X119593708Y-109349500D01*
X119445601Y-109372958D01*
X119445596Y-109372959D01*
X119444959Y-109373059D01*
X119436310Y-109374343D01*
X119435370Y-109374577D01*
X119431786Y-109375145D01*
X119431773Y-109375148D01*
X119383758Y-109382753D01*
X119383746Y-109382756D01*
X119323950Y-109402185D01*
X119319883Y-109403506D01*
X119307643Y-109406573D01*
X119279959Y-109416476D01*
X119278196Y-109417050D01*
X119278178Y-109417057D01*
X119181592Y-109448441D01*
X119181584Y-109448444D01*
X119091142Y-109494524D01*
X119091143Y-109494525D01*
X119089479Y-109495372D01*
X119062847Y-109507970D01*
X119052009Y-109514465D01*
X119048215Y-109516399D01*
X119048213Y-109516399D01*
X118992190Y-109544945D01*
X118992187Y-109544947D01*
X118952852Y-109573524D01*
X118952851Y-109573523D01*
X118949900Y-109575667D01*
X118949076Y-109576162D01*
X118942074Y-109581353D01*
X118941509Y-109581765D01*
X118941506Y-109581767D01*
X118820211Y-109669892D01*
X118763435Y-109726668D01*
X118763434Y-109726667D01*
X118761255Y-109728845D01*
X118744255Y-109744255D01*
X118728845Y-109761255D01*
X118726687Y-109763414D01*
X118726668Y-109763435D01*
X118669892Y-109820211D01*
X118581767Y-109941506D01*
X118581765Y-109941509D01*
X118581355Y-109942072D01*
X118576162Y-109949076D01*
X118575664Y-109949904D01*
X118573539Y-109952830D01*
X118573524Y-109952852D01*
X118567583Y-109961030D01*
X118544959Y-109992171D01*
X118544947Y-109992187D01*
X118544945Y-109992190D01*
X118516399Y-110048214D01*
X118516399Y-110048215D01*
X118514465Y-110052009D01*
X118507970Y-110062847D01*
X118495373Y-110089478D01*
X118494527Y-110091139D01*
X118448444Y-110181584D01*
X118448441Y-110181592D01*
X118417057Y-110278178D01*
X118416488Y-110279926D01*
X118406573Y-110307643D01*
X118403506Y-110319881D01*
X118402186Y-110323946D01*
X118402185Y-110323950D01*
X118382756Y-110383746D01*
X118382753Y-110383758D01*
X118375150Y-110431760D01*
X118374580Y-110435361D01*
X118374343Y-110436310D01*
X118373062Y-110444943D01*
X118372961Y-110445582D01*
X118372958Y-110445601D01*
X118349500Y-110593707D01*
X118349500Y-110673987D01*
X118349351Y-110680069D01*
X118348372Y-110699999D01*
X110156004Y-110699999D01*
X110250073Y-110645688D01*
X110312018Y-110583743D01*
X110352244Y-110556863D01*
X110445394Y-110518280D01*
X110559854Y-110403818D01*
X110621177Y-110370334D01*
X110647536Y-110367500D01*
X110719191Y-110367500D01*
X110719193Y-110367500D01*
X110831227Y-110337481D01*
X110931673Y-110279488D01*
X111013688Y-110197473D01*
X111071681Y-110097027D01*
X111101700Y-109984993D01*
X111101700Y-109869007D01*
X111071681Y-109756973D01*
X111013688Y-109656527D01*
X110931673Y-109574512D01*
X110874987Y-109541784D01*
X110831228Y-109516519D01*
X110775210Y-109501509D01*
X110719193Y-109486500D01*
X110603207Y-109486500D01*
X110491171Y-109516519D01*
X110390727Y-109574512D01*
X110390724Y-109574514D01*
X110308714Y-109656524D01*
X110308712Y-109656527D01*
X110250718Y-109756973D01*
X110244603Y-109779796D01*
X110208237Y-109839456D01*
X110145389Y-109869984D01*
X110092737Y-109867475D01*
X110037594Y-109852700D01*
X110037593Y-109852700D01*
X109921607Y-109852700D01*
X109809571Y-109882719D01*
X109709127Y-109940712D01*
X109709124Y-109940714D01*
X109627114Y-110022724D01*
X109627112Y-110022727D01*
X109569119Y-110123171D01*
X109549210Y-110197475D01*
X109539100Y-110235207D01*
X108828667Y-110235207D01*
X108924475Y-110139399D01*
X108974372Y-110089502D01*
X109062480Y-110001394D01*
X109079222Y-109960974D01*
X109102900Y-109903811D01*
X109102900Y-109608823D01*
X109122585Y-109541784D01*
X109139219Y-109521142D01*
X109152391Y-109507970D01*
X109189888Y-109470473D01*
X109247881Y-109370027D01*
X109277900Y-109257993D01*
X109277900Y-109142007D01*
X109266181Y-109098270D01*
X109267844Y-109028421D01*
X109298273Y-108978499D01*
X110982954Y-107293819D01*
X111044277Y-107260334D01*
X111070635Y-107257500D01*
X111142291Y-107257500D01*
X111142293Y-107257500D01*
X111254327Y-107227481D01*
X111354773Y-107169488D01*
X111436788Y-107087473D01*
X111494781Y-106987027D01*
X111524800Y-106874993D01*
X111524800Y-106759007D01*
X111494781Y-106646973D01*
X111436788Y-106546527D01*
X111354773Y-106464512D01*
X111304550Y-106435515D01*
X111254328Y-106406519D01*
X111198310Y-106391509D01*
X111142293Y-106376500D01*
X111026307Y-106376500D01*
X110914271Y-106406519D01*
X110813827Y-106464512D01*
X110813824Y-106464514D01*
X110731814Y-106546524D01*
X110731812Y-106546527D01*
X110673819Y-106646971D01*
X110643800Y-106759007D01*
X110643800Y-106830663D01*
X110624115Y-106897702D01*
X110607481Y-106918344D01*
X108785032Y-108740792D01*
X108729446Y-108772885D01*
X108667376Y-108789517D01*
X108667373Y-108789518D01*
X108566927Y-108847512D01*
X108566924Y-108847514D01*
X108484914Y-108929524D01*
X108484912Y-108929527D01*
X108426919Y-109029971D01*
X108408619Y-109098271D01*
X108396900Y-109142007D01*
X108396900Y-109257993D01*
X108402013Y-109277075D01*
X108426919Y-109370028D01*
X108448019Y-109406573D01*
X108484912Y-109470473D01*
X108484914Y-109470475D01*
X108535581Y-109521142D01*
X108550284Y-109548069D01*
X108566877Y-109573888D01*
X108567768Y-109580088D01*
X108569066Y-109582465D01*
X108571900Y-109608823D01*
X108571900Y-109689663D01*
X108552215Y-109756702D01*
X108535581Y-109777344D01*
X107869744Y-110443181D01*
X107808421Y-110476666D01*
X107782063Y-110479500D01*
X107710407Y-110479500D01*
X107598371Y-110509519D01*
X107497927Y-110567512D01*
X107497924Y-110567514D01*
X107415914Y-110649524D01*
X107415912Y-110649527D01*
X107357919Y-110749971D01*
X107327900Y-110862007D01*
X103590500Y-110862007D01*
X103590500Y-110822444D01*
X103552436Y-110631082D01*
X103532828Y-110583743D01*
X103477773Y-110450828D01*
X103477766Y-110450815D01*
X103369372Y-110288593D01*
X103369369Y-110288589D01*
X103231410Y-110150630D01*
X103231406Y-110150627D01*
X103069184Y-110042233D01*
X103069171Y-110042226D01*
X102888922Y-109967565D01*
X102888910Y-109967562D01*
X102697560Y-109929500D01*
X102697556Y-109929500D01*
X102502444Y-109929500D01*
X102502439Y-109929500D01*
X102311089Y-109967562D01*
X102311077Y-109967565D01*
X102130828Y-110042226D01*
X102130815Y-110042233D01*
X101968593Y-110150627D01*
X101968589Y-110150630D01*
X101830630Y-110288589D01*
X101830627Y-110288593D01*
X101722233Y-110450815D01*
X101722226Y-110450828D01*
X101647565Y-110631077D01*
X101647562Y-110631089D01*
X101609500Y-110822439D01*
X100300500Y-110822439D01*
X100300500Y-105733753D01*
X101250000Y-105733753D01*
X101250000Y-105946246D01*
X101283242Y-106156127D01*
X101283242Y-106156130D01*
X101348904Y-106358217D01*
X101445375Y-106547550D01*
X101484728Y-106601716D01*
X102117037Y-105969408D01*
X102134075Y-106032993D01*
X102199901Y-106147007D01*
X102292993Y-106240099D01*
X102407007Y-106305925D01*
X102470590Y-106322962D01*
X101838282Y-106955269D01*
X101838282Y-106955270D01*
X101892449Y-106994624D01*
X102081782Y-107091095D01*
X102283870Y-107156757D01*
X102371123Y-107170577D01*
X102434258Y-107200506D01*
X102471189Y-107259818D01*
X102470191Y-107329680D01*
X102431581Y-107387913D01*
X102375917Y-107414667D01*
X102311087Y-107427562D01*
X102311077Y-107427565D01*
X102130828Y-107502226D01*
X102130815Y-107502233D01*
X101968593Y-107610627D01*
X101968589Y-107610630D01*
X101830630Y-107748589D01*
X101830627Y-107748593D01*
X101722233Y-107910815D01*
X101722226Y-107910828D01*
X101647565Y-108091077D01*
X101647562Y-108091089D01*
X101609500Y-108282439D01*
X101609500Y-108477560D01*
X101647562Y-108668910D01*
X101647565Y-108668922D01*
X101722226Y-108849171D01*
X101722233Y-108849184D01*
X101830627Y-109011406D01*
X101830630Y-109011410D01*
X101968589Y-109149369D01*
X101968593Y-109149372D01*
X102130815Y-109257766D01*
X102130828Y-109257773D01*
X102177428Y-109277075D01*
X102311082Y-109332436D01*
X102445057Y-109359085D01*
X102502439Y-109370499D01*
X102502443Y-109370500D01*
X102502444Y-109370500D01*
X102697557Y-109370500D01*
X102697558Y-109370499D01*
X102888918Y-109332436D01*
X103068642Y-109257992D01*
X103069171Y-109257773D01*
X103069171Y-109257772D01*
X103069178Y-109257770D01*
X103231407Y-109149372D01*
X103369372Y-109011407D01*
X103411333Y-108948607D01*
X105541100Y-108948607D01*
X105541100Y-109064592D01*
X105571119Y-109176628D01*
X105600115Y-109226850D01*
X105629112Y-109277073D01*
X105711127Y-109359088D01*
X105811573Y-109417081D01*
X105923607Y-109447100D01*
X105923609Y-109447100D01*
X106039591Y-109447100D01*
X106039593Y-109447100D01*
X106151627Y-109417081D01*
X106252073Y-109359088D01*
X106334088Y-109277073D01*
X106392081Y-109176627D01*
X106422100Y-109064593D01*
X106422100Y-108948607D01*
X106422099Y-108948604D01*
X106421408Y-108943356D01*
X106429788Y-108879710D01*
X106431899Y-108874613D01*
X106431900Y-108874611D01*
X106431900Y-108768988D01*
X106431900Y-105483823D01*
X106451585Y-105416784D01*
X106454134Y-105412973D01*
X106460426Y-105403934D01*
X106518888Y-105345473D01*
X106549410Y-105292607D01*
X112932100Y-105292607D01*
X112932100Y-105408592D01*
X112962119Y-105520628D01*
X112991115Y-105570850D01*
X113020112Y-105621073D01*
X113102127Y-105703088D01*
X113202573Y-105761081D01*
X113314607Y-105791100D01*
X113314609Y-105791100D01*
X113430591Y-105791100D01*
X113430593Y-105791100D01*
X113542627Y-105761081D01*
X113643073Y-105703088D01*
X113725088Y-105621073D01*
X113783081Y-105520627D01*
X113813100Y-105408593D01*
X113813100Y-105336935D01*
X113832785Y-105269896D01*
X113849419Y-105249254D01*
X115498675Y-103599999D01*
X118348372Y-103599999D01*
X118349351Y-103619929D01*
X118349500Y-103626012D01*
X118349500Y-103706287D01*
X118349499Y-103706287D01*
X118372947Y-103854329D01*
X118373062Y-103855060D01*
X118374343Y-103863690D01*
X118374579Y-103864636D01*
X118375149Y-103868231D01*
X118382753Y-103916238D01*
X118382755Y-103916248D01*
X118397921Y-103962923D01*
X118403503Y-103980103D01*
X118406573Y-103992357D01*
X118416483Y-104020057D01*
X118417060Y-104021832D01*
X118448442Y-104118412D01*
X118488911Y-104197837D01*
X118495362Y-104210497D01*
X118507970Y-104237153D01*
X118514466Y-104247990D01*
X118516400Y-104251786D01*
X118516403Y-104251791D01*
X118544949Y-104307816D01*
X118575659Y-104350085D01*
X118576162Y-104350924D01*
X118581393Y-104357977D01*
X118669896Y-104479792D01*
X118728826Y-104538722D01*
X118744255Y-104555745D01*
X118761277Y-104571173D01*
X118820211Y-104630107D01*
X118941583Y-104718288D01*
X118941584Y-104718288D01*
X118942022Y-104718606D01*
X118949076Y-104723838D01*
X118949914Y-104724340D01*
X118952883Y-104726497D01*
X118952885Y-104726499D01*
X118992171Y-104755042D01*
X118992176Y-104755045D01*
X118992184Y-104755051D01*
X118992187Y-104755052D01*
X118992191Y-104755055D01*
X119048198Y-104783591D01*
X119052002Y-104785529D01*
X119062847Y-104792030D01*
X119089502Y-104804637D01*
X119181588Y-104851557D01*
X119279901Y-104883501D01*
X119307643Y-104893427D01*
X119319892Y-104896495D01*
X119323936Y-104897809D01*
X119323948Y-104897812D01*
X119383757Y-104917246D01*
X119435361Y-104925419D01*
X119436310Y-104925657D01*
X119445005Y-104926946D01*
X119593713Y-104950500D01*
X119677037Y-104950500D01*
X119700000Y-104951628D01*
X119722963Y-104950500D01*
X119806287Y-104950500D01*
X119954346Y-104927048D01*
X119954351Y-104927048D01*
X119955008Y-104926943D01*
X119963690Y-104925657D01*
X119964638Y-104925419D01*
X119968256Y-104924846D01*
X119968258Y-104924846D01*
X119979045Y-104923137D01*
X120016243Y-104917246D01*
X120080103Y-104896496D01*
X120092357Y-104893427D01*
X120120098Y-104883501D01*
X120218412Y-104851557D01*
X120310497Y-104804637D01*
X120337153Y-104792030D01*
X120347997Y-104785529D01*
X120407816Y-104755051D01*
X120450085Y-104724340D01*
X120450924Y-104723838D01*
X120457977Y-104718606D01*
X120579792Y-104630104D01*
X120638722Y-104571173D01*
X120655745Y-104555745D01*
X120671173Y-104538722D01*
X120730104Y-104479792D01*
X120818606Y-104357977D01*
X120823838Y-104350924D01*
X120824340Y-104350085D01*
X120855051Y-104307816D01*
X120885529Y-104247997D01*
X120892030Y-104237153D01*
X120904637Y-104210497D01*
X120951557Y-104118412D01*
X120983501Y-104020098D01*
X120993427Y-103992357D01*
X120996496Y-103980103D01*
X121017246Y-103916243D01*
X121025419Y-103864638D01*
X121025657Y-103863690D01*
X121026946Y-103854994D01*
X121050500Y-103706287D01*
X121050500Y-103622962D01*
X121051628Y-103600000D01*
X121050500Y-103577037D01*
X121050500Y-103493713D01*
X121026946Y-103345005D01*
X121025657Y-103336310D01*
X121025419Y-103335361D01*
X121017246Y-103283757D01*
X120996496Y-103219896D01*
X120993427Y-103207643D01*
X120983501Y-103179901D01*
X120951557Y-103081588D01*
X120904637Y-102989502D01*
X120892030Y-102962847D01*
X120885529Y-102952002D01*
X120855051Y-102892184D01*
X120824340Y-102849914D01*
X120823838Y-102849076D01*
X120818606Y-102842022D01*
X120818288Y-102841584D01*
X120818287Y-102841582D01*
X120730107Y-102720211D01*
X120671173Y-102661277D01*
X120655745Y-102644255D01*
X120638722Y-102628826D01*
X120579792Y-102569896D01*
X120457977Y-102481393D01*
X120450924Y-102476162D01*
X120450085Y-102475659D01*
X120407816Y-102444949D01*
X120351783Y-102416399D01*
X120347993Y-102414467D01*
X120337153Y-102407970D01*
X120310512Y-102395369D01*
X120308881Y-102394538D01*
X120308868Y-102394532D01*
X120273926Y-102376728D01*
X120218412Y-102348442D01*
X120121837Y-102317061D01*
X120121837Y-102317062D01*
X120120068Y-102316487D01*
X120092357Y-102306573D01*
X120080103Y-102303503D01*
X120076048Y-102302185D01*
X120076047Y-102302185D01*
X120062923Y-102297921D01*
X120016248Y-102282755D01*
X120016238Y-102282753D01*
X119968231Y-102275149D01*
X119964636Y-102274579D01*
X119963690Y-102274343D01*
X119955060Y-102273062D01*
X119954329Y-102272947D01*
X119954327Y-102272946D01*
X119806287Y-102249500D01*
X119722963Y-102249500D01*
X119700000Y-102248372D01*
X119677037Y-102249500D01*
X119593713Y-102249500D01*
X119593708Y-102249500D01*
X119445601Y-102272958D01*
X119445596Y-102272959D01*
X119444959Y-102273059D01*
X119436310Y-102274343D01*
X119435370Y-102274577D01*
X119431786Y-102275145D01*
X119431773Y-102275148D01*
X119383758Y-102282753D01*
X119383746Y-102282756D01*
X119323950Y-102302185D01*
X119319883Y-102303506D01*
X119307643Y-102306573D01*
X119279959Y-102316476D01*
X119278196Y-102317050D01*
X119278178Y-102317057D01*
X119181592Y-102348441D01*
X119181584Y-102348444D01*
X119091142Y-102394524D01*
X119091143Y-102394525D01*
X119089479Y-102395372D01*
X119062847Y-102407970D01*
X119052009Y-102414465D01*
X119048215Y-102416399D01*
X119048213Y-102416399D01*
X118992190Y-102444945D01*
X118992187Y-102444947D01*
X118952852Y-102473524D01*
X118952851Y-102473523D01*
X118949900Y-102475667D01*
X118949076Y-102476162D01*
X118942074Y-102481353D01*
X118941509Y-102481765D01*
X118941506Y-102481767D01*
X118820211Y-102569892D01*
X118763435Y-102626668D01*
X118763434Y-102626667D01*
X118761255Y-102628845D01*
X118744255Y-102644255D01*
X118728845Y-102661255D01*
X118726687Y-102663414D01*
X118726668Y-102663435D01*
X118669892Y-102720211D01*
X118581767Y-102841506D01*
X118581765Y-102841509D01*
X118581355Y-102842072D01*
X118576162Y-102849076D01*
X118575664Y-102849904D01*
X118573539Y-102852830D01*
X118573524Y-102852852D01*
X118552676Y-102881547D01*
X118544959Y-102892171D01*
X118544947Y-102892187D01*
X118544945Y-102892190D01*
X118516399Y-102948214D01*
X118516399Y-102948215D01*
X118514465Y-102952009D01*
X118507970Y-102962847D01*
X118495373Y-102989478D01*
X118494527Y-102991139D01*
X118448444Y-103081584D01*
X118448441Y-103081592D01*
X118417057Y-103178178D01*
X118416488Y-103179926D01*
X118406573Y-103207643D01*
X118403506Y-103219881D01*
X118402186Y-103223946D01*
X118402185Y-103223950D01*
X118382756Y-103283746D01*
X118382753Y-103283758D01*
X118375150Y-103331760D01*
X118374580Y-103335361D01*
X118374343Y-103336310D01*
X118373062Y-103344943D01*
X118372961Y-103345582D01*
X118372958Y-103345601D01*
X118349500Y-103493707D01*
X118349500Y-103573987D01*
X118349351Y-103580069D01*
X118348372Y-103599999D01*
X115498675Y-103599999D01*
X115589399Y-103509275D01*
X115604967Y-103493707D01*
X115731380Y-103367294D01*
X115748122Y-103326874D01*
X115771800Y-103269711D01*
X115771800Y-102570623D01*
X115791485Y-102503584D01*
X115808119Y-102482942D01*
X115817550Y-102473511D01*
X115858788Y-102432273D01*
X115916781Y-102331827D01*
X115946800Y-102219793D01*
X115946800Y-102103807D01*
X115916781Y-101991773D01*
X115858788Y-101891327D01*
X115776773Y-101809312D01*
X115726550Y-101780315D01*
X115676328Y-101751319D01*
X115620310Y-101736309D01*
X115564293Y-101721300D01*
X115448307Y-101721300D01*
X115336271Y-101751319D01*
X115235827Y-101809312D01*
X115235824Y-101809314D01*
X115153814Y-101891324D01*
X115153812Y-101891327D01*
X115095819Y-101991771D01*
X115065800Y-102103807D01*
X115065800Y-102219792D01*
X115095819Y-102331828D01*
X115105564Y-102348706D01*
X115153812Y-102432273D01*
X115153814Y-102432275D01*
X115204481Y-102482942D01*
X115237966Y-102544265D01*
X115240800Y-102570623D01*
X115240800Y-103055563D01*
X115221115Y-103122602D01*
X115204481Y-103143244D01*
X113473944Y-104873781D01*
X113412621Y-104907266D01*
X113386263Y-104910100D01*
X113314607Y-104910100D01*
X113202571Y-104940119D01*
X113102127Y-104998112D01*
X113102124Y-104998114D01*
X113020114Y-105080124D01*
X113020112Y-105080127D01*
X112962119Y-105180571D01*
X112932100Y-105292607D01*
X106549410Y-105292607D01*
X106576881Y-105245027D01*
X106606900Y-105132993D01*
X106606900Y-105017007D01*
X106576881Y-104904973D01*
X106518888Y-104804527D01*
X106436873Y-104722512D01*
X106372559Y-104685380D01*
X106336428Y-104664519D01*
X106280410Y-104649509D01*
X106224393Y-104634500D01*
X106108407Y-104634500D01*
X105996371Y-104664519D01*
X105895927Y-104722512D01*
X105895924Y-104722514D01*
X105813914Y-104804524D01*
X105813912Y-104804527D01*
X105755919Y-104904971D01*
X105725900Y-105017007D01*
X105725900Y-105132992D01*
X105755919Y-105245028D01*
X105758359Y-105249254D01*
X105813912Y-105345473D01*
X105813914Y-105345475D01*
X105864581Y-105396142D01*
X105898066Y-105457465D01*
X105900900Y-105483823D01*
X105900900Y-108477035D01*
X105881215Y-108544074D01*
X105828411Y-108589829D01*
X105815887Y-108594332D01*
X105811573Y-108596118D01*
X105711127Y-108654112D01*
X105711124Y-108654114D01*
X105629114Y-108736124D01*
X105629112Y-108736127D01*
X105571119Y-108836571D01*
X105541100Y-108948607D01*
X103411333Y-108948607D01*
X103420279Y-108935218D01*
X103462796Y-108871589D01*
X103477766Y-108849184D01*
X103477766Y-108849183D01*
X103477770Y-108849178D01*
X103552436Y-108668918D01*
X103590500Y-108477556D01*
X103590500Y-108282444D01*
X103552436Y-108091082D01*
X103552434Y-108091077D01*
X103477773Y-107910828D01*
X103477766Y-107910815D01*
X103369372Y-107748593D01*
X103369369Y-107748589D01*
X103231410Y-107610630D01*
X103231406Y-107610627D01*
X103069184Y-107502233D01*
X103069171Y-107502226D01*
X102888922Y-107427565D01*
X102888910Y-107427562D01*
X102824083Y-107414667D01*
X102762172Y-107382282D01*
X102727598Y-107321567D01*
X102731337Y-107251797D01*
X102772204Y-107195125D01*
X102828876Y-107170577D01*
X102916127Y-107156757D01*
X102916130Y-107156757D01*
X103118217Y-107091095D01*
X103307554Y-106994622D01*
X103361716Y-106955270D01*
X103361717Y-106955270D01*
X102729408Y-106322962D01*
X102792993Y-106305925D01*
X102907007Y-106240099D01*
X103000099Y-106147007D01*
X103065925Y-106032993D01*
X103082962Y-105969408D01*
X103715270Y-106601717D01*
X103715270Y-106601716D01*
X103754622Y-106547554D01*
X103851095Y-106358217D01*
X103916757Y-106156130D01*
X103916757Y-106156127D01*
X103950000Y-105946246D01*
X103950000Y-105733753D01*
X103916757Y-105523872D01*
X103916757Y-105523869D01*
X103851095Y-105321782D01*
X103754624Y-105132449D01*
X103715270Y-105078282D01*
X103715269Y-105078282D01*
X103082962Y-105710590D01*
X103065925Y-105647007D01*
X103000099Y-105532993D01*
X102907007Y-105439901D01*
X102792993Y-105374075D01*
X102729409Y-105357037D01*
X103361716Y-104724728D01*
X103307550Y-104685375D01*
X103118217Y-104588904D01*
X102944406Y-104532430D01*
X102886731Y-104492993D01*
X102859532Y-104428634D01*
X102871447Y-104359788D01*
X102918691Y-104308312D01*
X102982722Y-104290499D01*
X103463840Y-104290499D01*
X103504821Y-104282349D01*
X103551295Y-104251295D01*
X103582349Y-104204821D01*
X103590500Y-104163841D01*
X103590499Y-102436160D01*
X103582349Y-102395179D01*
X103551295Y-102348705D01*
X103504821Y-102317651D01*
X103463841Y-102309500D01*
X103463839Y-102309500D01*
X101736163Y-102309500D01*
X101695179Y-102317651D01*
X101649096Y-102348444D01*
X101648705Y-102348705D01*
X101638401Y-102364124D01*
X101617651Y-102395178D01*
X101609500Y-102436160D01*
X101609500Y-104163836D01*
X101609501Y-104163839D01*
X101609501Y-104163840D01*
X101617651Y-104204821D01*
X101648705Y-104251295D01*
X101695179Y-104282349D01*
X101736159Y-104290500D01*
X102217275Y-104290499D01*
X102284312Y-104310183D01*
X102330067Y-104362987D01*
X102340011Y-104432146D01*
X102310986Y-104495702D01*
X102255592Y-104532430D01*
X102081781Y-104588905D01*
X101892439Y-104685380D01*
X101838282Y-104724727D01*
X101838282Y-104724728D01*
X102470591Y-105357037D01*
X102407007Y-105374075D01*
X102292993Y-105439901D01*
X102199901Y-105532993D01*
X102134075Y-105647007D01*
X102117037Y-105710591D01*
X101484728Y-105078282D01*
X101484727Y-105078282D01*
X101445380Y-105132439D01*
X101348904Y-105321782D01*
X101283242Y-105523869D01*
X101283242Y-105523872D01*
X101250000Y-105733753D01*
X100300500Y-105733753D01*
X100300500Y-101806092D01*
X100301097Y-101793938D01*
X100301097Y-101793937D01*
X100312744Y-101675678D01*
X100317483Y-101651856D01*
X100350203Y-101543990D01*
X100359499Y-101521549D01*
X100412632Y-101422143D01*
X100426134Y-101401938D01*
X100497634Y-101314815D01*
X100514815Y-101297634D01*
X100601939Y-101226132D01*
X100622143Y-101212632D01*
X100721549Y-101159499D01*
X100743990Y-101150203D01*
X100851856Y-101117483D01*
X100875682Y-101112744D01*
X100975730Y-101102890D01*
X100993940Y-101101097D01*
X101006093Y-101100500D01*
X101047594Y-101100500D01*
X121452406Y-101100500D01*
X121493907Y-101100500D01*
X121506061Y-101101097D01*
G37*
%TD.AperFunction*%
%TD*%
M02*
